# WaveFront *.obj file (generated by CINEMA 4D)

mtllib ./BookBack.mtl

v -4.9233226776123 -1.91790509223938 19.99572372436523
v -4.9233226776123 3.58209490776062 19.99572372436523
v -4.9233226776123 -1.91790509223938 -19.99572372436523
v -4.9233226776123 3.58209490776062 -19.99572372436523
v -5.78833484649658 1.7124400138855 -19.99572372436523
v -5.78833484649658 1.7124400138855 19.99572372436523
v -5.78833484649658 -0.04825011268258 -19.99572372436523
v -5.78833484649658 -0.04825011268258 19.99572372436523
v -5.94568729400635 0.83209490776062 19.99572372436523
v -5.28844165802002 1.7124400138855 19.99572372436523
v -5.28844165802002 1.7124400138855 -19.99572372436523
v -5.28844165802002 -0.04825011268258 19.99572372436523
v -5.28844165802002 -0.04825011268258 -19.99572372436523
v -5.94568729400635 0.83209490776062 -19.99572372436523
v -5.89372205734253 1.43445694446564 -19.99572372436523
v -5.95966291427612 1.13811421394348 -19.99572372436523
v -5.98211669921875 0.83209490776062 -19.99572372436523
v -5.95966291427612 0.52607560157776 -19.99572372436523
v -5.89372205734253 0.22973296046257 -19.99572372436523
v -5.89372205734253 0.22973296046257 19.99572372436523
v -5.95966291427612 0.52607560157776 19.99572372436523
v -5.98211669921875 0.83209490776062 19.99572372436523
v -5.95966291427612 1.13811421394348 19.99572372436523
v -5.89372205734253 1.43445694446564 19.99572372436523
v -5.39382886886597 1.43445694446564 19.99572372436523
v -5.45976972579956 1.13811421394348 19.99572372436523
v -5.48222351074219 0.83209490776062 19.99572372436523
v -5.45976972579956 0.52607560157776 19.99572372436523
v -5.39382886886597 0.22973296046257 19.99572372436523
v -5.39382886886597 0.22973296046257 -19.99572372436523
v -5.45976972579956 0.52607560157776 -19.99572372436523
v -5.48222351074219 0.83209490776062 -19.99572372436523
v -5.45976972579956 1.13811421394348 -19.99572372436523
v -5.39382886886597 1.43445694446564 -19.99572372436523
v -4.63337755203247 -1.46411895751953 19.99572372436523
v -4.63337755203247 -1.46411895751953 -19.99572372436523
v -4.63337755203247 3.12830877304077 19.99572372436523
v -4.63337755203247 3.12830877304077 -19.99572372436523
v -4.8283052444458 -1.90344667434692 19.99572372436523
v -4.73226976394653 -1.8544762134552 19.99572372436523
v -4.65411233901978 -1.77043449878693 19.99572372436523
v -4.61068677902222 -1.66418981552124 19.99572372436523
v -4.60658979415894 -1.55644524097443 19.99572372436523
v -4.8283052444458 -1.90344667434692 -19.99572372436523
v -4.73226976394653 -1.8544762134552 -19.99572372436523
v -4.65411233901978 -1.77043449878693 -19.99572372436523
v -4.61068677902222 -1.66418981552124 -19.99572372436523
v -4.60658979415894 -1.55644524097443 -19.99572372436523
v -4.8283052444458 3.56763648986816 -19.99572372436523
v -4.73226976394653 3.51866602897644 -19.99572372436523
v -4.65411233901978 3.43462443351746 -19.99572372436523
v -4.61068677902222 3.32837963104248 -19.99572372436523
v -4.60658979415894 3.22063493728638 -19.99572372436523
v -4.8283052444458 3.56763648986816 19.99572372436523
v -4.73226976394653 3.51866602897644 19.99572372436523
v -4.65411233901978 3.43462443351746 19.99572372436523
v -4.61068677902222 3.32837963104248 19.99572372436523
v -4.60658979415894 3.22063493728638 19.99572372436523
# 58 vertices

vn 0 0 1
vn 0 0 0
vn 0.90757220983505 0.41989606618881 0
vn 0.90757220983505 -0.41989609599113 0
vn 0 0 -1
vn -0.90757220983505 -0.41989609599113 0
vn -0.90757220983505 0.41989603638649 0
vn 0.93505847454071 -0.35449346899986 0
vn 0.95805466175079 -0.28658545017242 0
vn -0.93505841493607 -0.35449373722076 0
vn -0.95805466175079 -0.28658562898636 0
vn 0.98934698104858 -0.14557674527168 0
vn 1 0 0
vn 0.98934698104858 0.14557674527168 0
vn 0.95805466175079 0.28658553957939 0
vn 0.93505841493607 0.35449361801147 0
vn -0.98934698104858 -0.14557674527168 0
vn -1 0 0
vn -0.98934698104858 0.14557674527168 0
vn -0.95805466175079 0.28658550977707 0
vn -0.93505847454071 0.35449358820915 0
vn 0.15043352544308 -0.98862010240555 0
vn 0.30627682805061 -0.9519425034523 0
vn 0.15043625235558 0.98861968517303 0
vn 0.30627733469009 0.95194232463837 0
vn 0.60248249769211 -0.79813206195831 0
vn 0.8426701426506 -0.53843015432358 0
vn 0.97739893198013 -0.2114032804966 0
vn 0.99254381656647 0.12188848108053 0
vn 0.96039164066315 0.27865383028984 0
vn 0.60248255729675 0.79813206195831 0
vn 0.84267055988312 0.53842949867249 0
vn 0.97739893198013 0.2114033550024 0
vn 0.99254381656647 -0.1218885704875 0
vn 0.9603915810585 -0.27865397930145 0
# 35 normals

vt 1 0 0
vt 0 0 0
vt 0 1 0
vt 1 1 0
vt 0 0.08250665664673 0
vt 0 0.3399373292923 0
vt 1 0.3399373292923 0
vt 1 0.08250665664673 0
vt 0 0.66006273031235 0
vt 0 0.91749346256256 0
vt 1 0.91749346256256 0
vt 1 0.66006273031235 0
vt 1 0.5 0
vt 0 0.5 0
vt 1 0.60670852661133 0
vt 0 0.60670852661133 0
vt 0 0.39329159259796 0
vt 1 0.39329159259796 0
vt 0.5 0.5 0
vt 0.11587097495794 0.3261935710907 0
vt 0.11587097495794 0.67380648851395 0
vt 0.45615595579147 0.84211695194244 0
vt 0.45615595579147 0.15788304805756 0
vt 0.73932367563248 0.67380648851395 0
vt 0.83965319395065 0.84211695194244 0
vt 0.83965319395065 0.15788304805756 0
vt 0.73932367563248 0.3261935710907 0
vt 0.70516031980515 0.5 0
vt 1 0.55335426330566 0
vt 0 0.55335426330566 0
vt 1 0.50000005960464 0
vt 0 0.50000005960464 0
vt 1 0.44664585590363 0
vt 0 0.44664585590363 0
vt 0.18041777610779 1 0
vt 0.18041777610779 0 0
vt 0.18041776120663 1 0
vt 0.18041776120663 0 0
vt 0.36083555221558 1 0
vt 0.36083555221558 0 0
vt 0.54125332832336 1 0
vt 0.54125332832336 0 0
vt 0.72167110443115 1 0
vt 0.72167110443115 0 0
vt 0.90208888053894 1 0
vt 0.90208888053894 0 0
vt 1.08250665664673 1 0
vt 1.08250665664673 0 0
vt 0.36083552241325 1 0
vt 0.36083552241325 0 0
vt 0.54125326871872 1 0
vt 0.54125326871872 0 0
vt 0.72167104482651 1 0
vt 0.72167104482651 0 0
vt 0.9020888209343 1 0
vt 0.9020888209343 0 0
vt 1.08250653743744 1 0
vt 1.08250653743744 0 0
# 58 texture coordinates

o Cube.3
usemtl Leather 03
f 1/1/2 39/1/1 40/4/1 41/3/1 42/2/1 43/1/1 35/4/1 12/2/1 9/1/1 9/4/2 8/4/1 1/2/1
f 9/1/2 10/4/1 37/3/1 58/2/1 57/4/1 56/3/1 55/3/1 54/1/1 2/3/1 2/3/2 6/4/1 9/3/1
f 36/8/3 13/7/3 12/6/3 35/5/3
f 11/12/4 38/11/4 37/10/4 10/9/4
f 3/1/2 7/4/5 14/3/5 13/13/5 36/4/5 48/3/5 47/4/5 46/2/5 45/1/5 44/3/5 3/3/5
f 14/1/2 5/4/5 4/4/5 49/4/5 50/3/5 51/2/5 52/1/5 53/4/5 38/1/5 11/14/5 14/3/5
f 1/1/6 8/7/6 7/6/6 3/2/6
f 6/12/7 2/4/7 4/3/7 5/9/7
f 2/2/2 4/3/2 4/3/2
f 3/2/2 1/3/2 1/3/2
f 10/9/8 25/16/9 34/15/9 11/12/8
f 8/7/10 20/18/11 19/17/11 7/6/10
f 14/19/5 7/6/5 19/22/5 18/21/5 17/14/5 16/20/5 15/23/5 5/9/5
f 24/23/1 23/20/1 22/14/1 21/21/1 20/22/1 8/7/1 9/19/1 6/12/1
f 9/19/2 12/6/1 29/25/1 28/24/1 27/28/1 26/27/1 25/26/1 10/9/1
f 34/26/2 33/27/5 32/28/5 31/24/5 30/25/5 13/7/5 14/19/5 11/12/5
f 25/16/9 26/30/12 33/29/12 34/15/9
f 26/30/12 27/32/13 32/31/13 33/29/12
f 27/32/13 28/34/14 31/33/14 32/31/13
f 28/34/14 29/17/15 30/18/15 31/33/14
f 29/17/15 12/6/16 13/7/16 30/18/15
f 20/18/11 21/33/17 18/34/17 19/17/11
f 21/33/17 22/31/18 17/32/18 18/34/17
f 22/31/18 23/29/19 16/30/19 17/32/18
f 23/29/19 24/15/20 15/16/20 16/30/19
f 24/15/20 6/12/21 5/9/21 15/16/20
f 3/2/22 44/36/23 39/35/23 1/3/22
f 2/2/24 54/38/25 49/37/25 4/3/24
f 44/36/23 45/40/26 40/39/26 39/35/23
f 45/40/26 46/42/27 41/41/27 40/39/26
f 46/42/27 47/44/28 42/43/28 41/41/27
f 47/44/28 48/46/29 43/45/29 42/43/28
f 48/46/29 36/48/30 35/47/30 43/45/29
f 54/38/25 55/50/31 50/49/31 49/37/25
f 55/50/31 56/52/32 51/51/32 50/49/31
f 56/52/32 57/54/33 52/53/33 51/51/32
f 57/54/33 58/56/34 53/55/34 52/53/33
f 58/56/34 37/58/35 38/57/35 53/55/34

