# WaveFront *.obj file (generated by CINEMA 4D)

v -0.17855894565582 -0.07681231945753 0.43077105283737
v -0.13535976409912 0.07681231945753 0.39863136410713
v 0.13535971939564 0.07681231945753 0.39863136410713
v 0.17855890095234 -0.07681231945753 0.43077105283737
v 0.19126507639885 -0.07688750326633 0.41908457875252
v 0.14802362024784 0.07688749581575 0.38691341876984
v 0.14802362024784 0.07688749581575 -0.38691341876984
v 0.19126507639885 -0.07688750326633 -0.41908457875252
v 0.17855890095234 -0.07681231945753 -0.43077105283737
v 0.13535971939564 0.07681231945753 -0.39863136410713
v -0.13535976409912 0.07681231945753 -0.39863136410713
v -0.17855894565582 -0.07681231945753 -0.43077105283737
v -0.19126512110233 -0.07688750326633 -0.41908457875252
v -0.14802366495132 0.07688749581575 -0.38691341876984
v -0.14802366495132 0.07688749581575 0.38691341876984
v -0.19126512110233 -0.07688750326633 0.41908457875252
v -0.13300122320652 0.08618400245905 0.38513121008873
v -0.13300122320652 0.08618400245905 -0.38513121008873
v 0.13300117850304 0.08618400245905 -0.38513121008873
v 0.13300117850304 0.08618400245905 0.38513121008873
v -0.18147101998329 -0.08618400245905 -0.42119219899178
v -0.18147101998329 -0.08618400245905 0.42119219899178
v 0.18147097527981 -0.08618400245905 0.42119219899178
v 0.18147097527981 -0.08618400245905 -0.42119219899178
v -0.18175807595253 -0.07861869782209 0.43092000484467
v -0.18534098565578 -0.0801554620266 0.43024584650993
v -0.18873722851276 -0.08083160221577 0.42825672030449
v -0.19086576998234 -0.08018814027309 0.42516443133354
v -0.19152002036572 -0.07867646217346 0.42194148898125
v -0.1472724378109 0.07867645472288 0.3890218436718
v -0.14576803147793 0.08018814772367 0.39161223173141
v -0.14327761530876 0.08083159476519 0.39443531632423
v -0.14026162028313 0.0801554620266 0.39670729637146
v -0.13754299283028 0.07861869782209 0.398024559021
v -0.18333250284195 -0.08602230995893 0.42313531041145
v -0.18507647514343 -0.08522646874189 0.42580065131187
v -0.18544726073742 -0.08333414793015 0.42862644791603
v -0.18367546796799 -0.08071769028902 0.43040901422501
v -0.1809695661068 -0.07841788977385 0.43090787529945
v 0.18096952140331 -0.07841788977385 0.43090787529945
v 0.1836754232645 -0.08071769028902 0.43040901422501
v 0.1854472309351 -0.08333414793015 0.42862644791603
v 0.18507644534111 -0.08522646874189 0.42580065131187
v 0.18333245813847 -0.08602230995893 0.42313531041145
v -0.18347471952438 -0.08602888137102 -0.42286843061447
v -0.18627454340458 -0.08524393290281 -0.42452523112297
v -0.18926613032818 -0.08332920819521 -0.42499732971191
v -0.19107806682587 -0.0806844457984 -0.42349153757095
v -0.19148939847946 -0.07842136919498 -0.42114368081093
v -0.19148939847946 -0.07842136919498 0.42114368081093
v -0.19107806682587 -0.0806844457984 0.42349153757095
v -0.18926613032818 -0.08332920819521 0.42499732971191
v -0.18627454340458 -0.08524393290281 0.42452523112297
v -0.18347471952438 -0.08602888137102 0.42286843061447
v -0.13729295134544 0.07886161655188 0.39795675873756
v -0.138771250844 0.08124118298292 0.39646071195602
v -0.13904681801796 0.08352886140347 0.39395689964294
v -0.13778157532215 0.08517357707024 0.39079594612122
v -0.13550040125847 0.08598431944847 0.38769635558128
v 0.13550035655499 0.08598431944847 0.38769635558128
v 0.13778153061867 0.08517357707024 0.39079594612122
v 0.13904677331448 0.08352886140347 0.39395689964294
v 0.13877120614052 0.08124118298292 0.39646071195602
v 0.13729290664196 0.07886161655188 0.39795675873756
v -0.13583479821682 0.08598204702139 0.3875016272068
v -0.13921611011028 0.08517784625292 0.38959181308746
v -0.14265529811382 0.08356973528862 0.39068186283112
v -0.14543099701405 0.08133182674646 0.39032915234566
v -0.14716909825802 0.07896791398525 0.38884627819061
v -0.14716909825802 0.07896791398525 -0.38884627819061
v -0.14543099701405 0.08133182674646 -0.39032915234566
v -0.14265529811382 0.08356973528862 -0.39068186283112
v -0.13921611011028 0.08517784625292 -0.38959181308746
v -0.13583479821682 0.08598204702139 -0.3875016272068
v 0.13754294812679 0.07861869782209 0.398024559021
v 0.1402615904808 0.0801554620266 0.39670729637146
v 0.14327757060528 0.08083159476519 0.39443531632423
v 0.14576798677444 0.08018814772367 0.39161223173141
v 0.14727240800858 0.07867645472288 0.3890218436718
v 0.19151997566223 -0.07867646217346 0.42194148898125
v 0.19086572527885 -0.08018814027309 0.42516443133354
v 0.18873719871044 -0.08083160221577 0.42825672030449
v 0.1853409409523 -0.0801554620266 0.43024584650993
v 0.18175803124905 -0.07861869782209 0.43092000484467
v 0.1834746748209 -0.08602888137102 0.42286843061447
v 0.1862744987011 -0.08524393290281 0.42452523112297
v 0.18926608562469 -0.08332920819521 0.42499732971191
v 0.19107802212238 -0.0806844457984 0.42349153757095
v 0.19148935377598 -0.07842136919498 0.42114368081093
v 0.19148935377598 -0.07842136919498 -0.42114368081093
v 0.19107802212238 -0.0806844457984 -0.42349153757095
v 0.18926608562469 -0.08332920819521 -0.42499732971191
v 0.1862744987011 -0.08524393290281 -0.42452523112297
v 0.1834746748209 -0.08602888137102 -0.42286843061447
v 0.1471690684557 0.07896791398525 0.38884627819061
v 0.14543095231056 0.08133182674646 0.39032915234566
v 0.1426552683115 0.08356973528862 0.39068186283112
v 0.1392160654068 0.08517784625292 0.38959181308746
v 0.13583475351334 0.08598204702139 0.3875016272068
v 0.13583475351334 0.08598204702139 -0.3875016272068
v 0.1392160654068 0.08517784625292 -0.38959181308746
v 0.1426552683115 0.08356973528862 -0.39068186283112
v 0.14543095231056 0.08133182674646 -0.39032915234566
v 0.1471690684557 0.07896791398525 -0.38884627819061
v 0.18175803124905 -0.07861869782209 -0.43092000484467
v 0.1853409409523 -0.0801554620266 -0.43024584650993
v 0.18873719871044 -0.08083160221577 -0.42825672030449
v 0.19086572527885 -0.08018814027309 -0.42516443133354
v 0.19151997566223 -0.07867646217346 -0.42194148898125
v 0.14727240800858 0.07867645472288 -0.3890218436718
v 0.14576798677444 0.08018814772367 -0.39161223173141
v 0.14327757060528 0.08083159476519 -0.39443531632423
v 0.1402615904808 0.0801554620266 -0.39670729637146
v 0.13754294812679 0.07861869782209 -0.398024559021
v -0.1809695661068 -0.07841788977385 -0.43090787529945
v -0.18367546796799 -0.08071769028902 -0.43040901422501
v -0.18544726073742 -0.08333414793015 -0.42862644791603
v -0.18507647514343 -0.08522646874189 -0.42580065131187
v -0.18333250284195 -0.08602230995893 -0.42313531041145
v 0.18333245813847 -0.08602230995893 -0.42313531041145
v 0.18507644534111 -0.08522646874189 -0.42580065131187
v 0.1854472309351 -0.08333414793015 -0.42862644791603
v 0.1836754232645 -0.08071769028902 -0.43040901422501
v 0.18096952140331 -0.07841788977385 -0.43090787529945
v 0.13729290664196 0.07886161655188 -0.39795675873756
v 0.13877120614052 0.08124118298292 -0.39646071195602
v 0.13904677331448 0.08352886140347 -0.39395689964294
v 0.13778153061867 0.08517357707024 -0.39079594612122
v 0.13550035655499 0.08598431944847 -0.38769635558128
v -0.13550040125847 0.08598431944847 -0.38769635558128
v -0.13778157532215 0.08517357707024 -0.39079594612122
v -0.13904681801796 0.08352886140347 -0.39395689964294
v -0.138771250844 0.08124118298292 -0.39646071195602
v -0.13729295134544 0.07886161655188 -0.39795675873756
v -0.19152002036572 -0.07867646217346 -0.42194148898125
v -0.19086576998234 -0.08018814027309 -0.42516443133354
v -0.18873722851276 -0.08083160221577 -0.42825672030449
v -0.18534098565578 -0.0801554620266 -0.43024584650993
v -0.18175807595253 -0.07861869782209 -0.43092000484467
v -0.13754299283028 0.07861869782209 -0.398024559021
v -0.14026162028313 0.0801554620266 -0.39670729637146
v -0.14327761530876 0.08083159476519 -0.39443531632423
v -0.14576803147793 0.08018814772367 -0.39161223173141
v -0.1472724378109 0.07867645472288 -0.3890218436718
# 144 vertices

vn -0.02324556000531 0.154405772686 0.98773401975632
vn -0.02675268054008 0.25931835174561 0.96542131900787
vn 0.02675268799067 0.25931835174561 0.96542131900787
vn 0.02324556745589 0.154405772686 0.98773401975632
vn 0.97570639848709 0.21734952926636 0.02749967202544
vn 0.94573581218719 0.32331189513206 0.03245318681002
vn 0.94573581218719 0.32331183552742 -0.03245275467634
vn 0.97570639848709 0.21734942495823 -0.02749923989177
vn 0.02324556000531 0.154405772686 -0.98773401975632
vn 0.02675268054008 0.25931835174561 -0.96542131900787
vn -0.02674813196063 0.2593207359314 -0.96542078256607
vn -0.02324561402202 0.15440580248833 -0.98773401975632
vn -0.97570639848709 0.21734949946404 -0.02749979496002
vn -0.94573581218719 0.32331186532974 -0.0324533097446
vn -0.94573581218719 0.32331183552742 0.03245275467634
vn -0.97570639848709 0.21734942495823 0.02749923989177
vn -0.02609968185425 0.99918550252914 0.03077488578856
vn -0.02609968185425 0.99918550252914 -0.03077488578856
vn 0.02609968185425 0.99918550252914 -0.03077488578856
vn 0.0260996799916 0.99918550252914 0.03077488951385
vn -0.02913587912917 -0.99905866384506 -0.03213865309954
vn -0.02913587912917 -0.99905866384506 0.03213865309954
vn 0.02913587912917 -0.99905866384506 0.03213865309954
vn 0.02913587912917 -0.99905866384506 -0.03213865309954
vn -0.41150698065758 0.2960504591465 0.86198383569717
vn -0.64215862751007 0.32574847340584 0.69391661882401
vn -0.54790169000626 0.5552151799202 0.62573146820068
vn -0.34700408577919 0.42806693911552 0.83447402715683
vn -0.82488775253296 0.32824346423149 0.46023517847061
vn -0.79609829187393 0.45804074406624 0.39550748467445
vn -0.10338885337114 0.0977129638195 0.98982971906662
vn -0.14537623524666 0.31020084023476 0.93948984146118
vn -0.98260498046875 0.1451363414526 0.11585699021816
vn -0.91658717393875 0.36047172546387 0.17299735546112
vn -0.00773863587528 -0.06221315637231 0.99803286790848
vn 0.00773863960057 -0.06221315264702 0.99803286790848
vn -0.05643934756517 -0.98814725875854 0.14275726675987
vn 0.05643934383988 -0.98814725875854 0.14275725185871
vn -0.23220501840115 -0.88541394472122 0.40264493227005
vn -0.21201618015766 -0.66029208898544 0.72046059370041
vn 0.2120161652565 -0.66029214859009 0.72046053409576
vn 0.23220501840115 -0.88541394472122 0.40264493227005
vn -0.08646991848946 -0.36215841770172 0.92809706926346
vn 0.08646989613771 -0.36215841770172 0.9280971288681
vn -0.14370350539684 -0.9883685708046 -0.04976853355765
vn -0.36875864863396 -0.91762936115265 -0.14823439717293
vn -0.36875867843628 -0.917629301548 0.14823441207409
vn -0.14370350539684 -0.9883685708046 0.04976852983236
vn -0.65711092948914 -0.70326220989227 -0.27134394645691
vn -0.65711092948914 -0.70326215028763 0.27134394645691
vn -0.99978220462799 -0.019994687289 -0.00598290516064
vn -0.99978220462799 -0.01999469101429 0.00598290609196
vn -0.92919111251831 -0.35790845751762 -0.09222481399775
vn -0.92919111251831 -0.35790848731995 0.09222481399775
vn -0.03869265317917 0.98984229564667 0.13680320978165
vn 0.0386926420033 0.98984229564667 0.13680320978165
vn -0.10602533072233 0.94408947229385 0.31217578053474
vn 0.10602534562349 0.94408947229385 0.31217578053474
vn -0.0514293089509 0.39721718430519 0.91628247499466
vn 0.05142930522561 0.39721718430519 0.91628247499466
vn -0.19233529269695 0.63300603628159 0.74987363815308
vn 0.19233529269695 0.63300603628159 0.74987363815308
vn -0.1776098459959 0.83069455623627 0.52763748168945
vn 0.1776098459959 0.83069455623627 0.52763748168945
vn -0.11473332345486 0.99193906784058 0.05378798767924
vn -0.1147333085537 0.99193906784058 -0.05378798767924
vn -0.27295076847076 0.95302546024323 0.13130250573158
vn -0.27295076847076 0.95302546024323 -0.13130250573158
vn -0.74708139896393 0.64453595876694 0.16261258721352
vn -0.88908725976944 0.45299938321114 0.06569169461727
vn -0.88908725976944 0.45299938321114 -0.06569170206785
vn -0.74708139896393 0.64453595876694 -0.16261258721352
vn -0.49235302209854 0.82543396949768 0.27612897753716
vn -0.49235302209854 0.82543402910233 -0.27612897753716
vn 0.79609829187393 0.45804077386856 0.39550748467445
vn 0.91658711433411 0.36047172546387 0.17299762368202
vn 0.98260498046875 0.14513635635376 0.11585728079081
vn 0.82488775253296 0.32824340462685 0.46023523807526
vn 0.34700402617455 0.4280669093132 0.83447402715683
vn 0.54790151119232 0.55521512031555 0.62573158740997
vn 0.64215832948685 0.32574838399887 0.69391691684723
vn 0.41150692105293 0.29605048894882 0.86198383569717
vn 0.14537625014782 0.31020092964172 0.93948984146118
vn 0.10338886082172 0.09771303087473 0.98982971906662
vn 0.36875864863396 -0.91762936115265 0.14823439717293
vn 0.65711092948914 -0.70326220989227 0.27134394645691
vn 0.65711092948914 -0.70326220989227 -0.27134397625923
vn 0.36875867843628 -0.917629301548 -0.14823441207409
vn 0.92919111251831 -0.35790845751762 0.09222481399775
vn 0.92919111251831 -0.35790848731995 -0.09222481399775
vn 0.14370350539684 -0.9883685708046 0.04976853355765
vn 0.14370350539684 -0.9883685708046 -0.04976853355765
vn 0.99978220462799 -0.019994687289 0.00598290516064
vn 0.99978220462799 -0.01999468542635 -0.0059829056263
vn 0.74708139896393 0.64453595876694 0.16261258721352
vn 0.4923529624939 0.82543402910233 0.27612897753716
vn 0.49235299229622 0.82543402910233 -0.27612900733948
vn 0.74708139896393 0.64453595876694 -0.16261258721352
vn 0.27295076847076 0.95302546024323 0.13130250573158
vn 0.27295076847076 0.95302546024323 -0.13130250573158
vn 0.11473332345486 0.99193906784058 0.05378799885511
vn 0.1147333085537 0.99193906784058 -0.05378798767924
vn 0.88908725976944 0.45299938321114 0.06569170206785
vn 0.88908725976944 0.45299938321114 -0.06569170206785
vn 0.10338885337114 0.09771297127008 -0.98982971906662
vn 0.41150698065758 0.2960504591465 -0.86198383569717
vn 0.34700408577919 0.42806693911552 -0.83447402715683
vn 0.14537625014782 0.3102008998394 -0.93948984146118
vn 0.64215862751007 0.32574847340584 -0.69391661882401
vn 0.54790169000626 0.5552151799202 -0.62573146820068
vn 0.98260498046875 0.1451363414526 -0.11585699021816
vn 0.91658717393875 0.36047172546387 -0.17299737036228
vn 0.82488775253296 0.32824346423149 -0.46023517847061
vn 0.79609829187393 0.45804074406624 -0.39550748467445
vn -0.23220501840115 -0.88541394472122 -0.40264493227005
vn -0.05643934383988 -0.98814725875854 -0.14275725185871
vn 0.05643934011459 -0.98814725875854 -0.14275725185871
vn 0.23220501840115 -0.88541394472122 -0.40264493227005
vn -0.00773863960057 -0.06221315264702 -0.99803286790848
vn -0.08646989613771 -0.36215841770172 -0.9280971288681
vn 0.08646989613771 -0.36215841770172 -0.9280971288681
vn 0.00773863960057 -0.06221314892173 -0.99803286790848
vn -0.21201615035534 -0.66029208898544 -0.72046059370041
vn 0.21201615035534 -0.66029208898544 -0.72046059370041
vn 0.05142930522561 0.39721718430519 -0.91628247499466
vn -0.05142292007804 0.39722228050232 -0.91628062725067
vn 0.19233529269695 0.63300603628159 -0.74987363815308
vn -0.19233375787735 0.63300800323486 -0.74987238645554
vn 0.10602533072233 0.94408947229385 -0.31217578053474
vn 0.03869265317917 0.98984229564667 -0.13680320978165
vn -0.03869264572859 0.98984229564667 -0.13680320978165
vn -0.10602534562349 0.94408947229385 -0.31217578053474
vn 0.1776098459959 0.83069455623627 -0.52763748168945
vn -0.1776098459959 0.83069455623627 -0.52763748168945
vn -0.82488775253296 0.32824346423149 -0.46023520827293
vn -0.64215844869614 0.32574847340584 -0.69391673803329
vn -0.54790163040161 0.5552151799202 -0.62573152780533
vn -0.79609829187393 0.45804074406624 -0.39550751447678
vn -0.41150683164597 0.2960504591465 -0.86198389530182
vn -0.34700232744217 0.42806988954544 -0.8344731926918
vn -0.98260492086411 0.14513637125492 -0.11585763096809
vn -0.91658705472946 0.36047172546387 -0.17299798130989
vn -0.10338898748159 0.09771303087473 -0.98982971906662
vn -0.14537011086941 0.3102063536644 -0.93948900699615
vn -0.92514818906784 -0.33212608098984 0.18382896482944
vn 0 0 0
vn -0.17218933999538 -0.32641065120697 0.92941212654114
vn -0.5761427283287 -0.55088591575623 0.60380816459656
vn 0.57614266872406 -0.55088597536087 0.60380816459656
vn 0.1721892952919 -0.32641065120697 0.92941212654114
vn 0.92514818906784 -0.33212608098984 0.18382896482944
vn 0.92514818906784 -0.33212608098984 -0.18382896482944
vn 0.57614266872406 -0.55088597536087 -0.60380816459656
vn 0.1721892952919 -0.32641065120697 -0.92941212654114
vn -0.1721892952919 -0.32641065120697 -0.92941212654114
vn -0.57614266872406 -0.55088597536087 -0.60380816459656
vn -0.92514818906784 -0.33212608098984 -0.18382896482944
# 157 normals

vt 0 0 0
vt 0 1 0
vt 1 1 0
vt 1 0 0
# 4 texture coordinates

o Gold_Bar_01
usemtl Gold
f 4/4/4 3/3/3 2/2/2 1/1/1
f 8/4/8 7/3/7 6/2/6 5/1/5
f 12/4/12 11/3/11 10/2/10 9/1/9
f 16/4/16 15/3/15 14/2/14 13/1/13
f 24/4/24 23/3/23 22/2/22 21/1/21
f 33/1/28 32/4/27 27/3/26 26/2/25
f 32/1/27 31/4/30 28/3/29 27/2/26
f 2/1/2 34/4/32 25/3/31 1/2/1
f 34/1/32 33/4/28 26/3/25 25/2/31
f 31/1/30 30/4/34 29/3/33 28/2/29
f 30/1/34 15/4/15 16/3/16 29/2/33
f 40/1/36 4/4/4 1/3/1 39/2/35
f 23/1/23 44/4/38 35/3/37 22/2/22
f 43/1/42 42/4/41 37/3/40 36/2/39
f 42/1/41 41/4/44 38/3/43 37/2/40
f 41/1/44 40/4/36 39/3/35 38/2/43
f 44/1/38 43/4/42 36/3/39 35/2/37
f 54/1/48 53/4/47 46/3/46 45/2/45
f 53/1/47 52/4/50 47/3/49 46/2/46
f 50/1/52 16/4/16 13/3/13 49/2/51
f 22/1/22 54/4/48 45/3/45 21/2/21
f 52/1/50 51/4/54 48/3/53 47/2/49
f 51/1/54 50/4/52 49/3/51 48/2/53
f 60/1/56 20/4/20 17/3/17 59/2/55
f 61/1/58 60/4/56 59/3/55 58/2/57
f 3/1/3 64/4/60 55/3/59 2/2/2
f 64/1/60 63/4/62 56/3/61 55/2/59
f 63/1/62 62/4/64 57/3/63 56/2/61
f 62/1/64 61/4/58 58/3/57 57/2/63
f 18/1/18 74/4/66 65/3/65 17/2/17
f 74/1/66 73/4/68 66/3/67 65/2/65
f 71/1/72 70/4/71 69/3/70 68/2/69
f 70/1/71 14/4/14 15/3/15 69/2/70
f 73/1/68 72/4/74 67/3/73 66/2/67
f 72/1/74 71/4/72 68/3/69 67/2/73
f 81/1/78 80/4/77 79/3/76 78/2/75
f 80/1/77 5/4/5 6/3/6 79/2/76
f 83/1/82 82/4/81 77/3/80 76/2/79
f 82/1/81 81/4/78 78/3/75 77/2/80
f 4/1/4 84/4/84 75/3/83 3/2/3
f 84/1/84 83/4/82 76/3/79 75/2/83
f 93/1/88 92/4/87 87/3/86 86/2/85
f 92/1/87 91/4/90 88/3/89 87/2/86
f 24/1/24 94/4/92 85/3/91 23/2/23
f 94/1/92 93/4/88 86/3/85 85/2/91
f 91/1/90 90/4/94 89/3/93 88/2/89
f 90/1/94 8/4/8 5/3/5 89/2/93
f 103/1/98 102/4/97 97/3/96 96/2/95
f 102/1/97 101/4/100 98/3/99 97/2/96
f 101/1/100 100/4/102 99/3/101 98/2/99
f 100/1/102 19/4/19 20/3/20 99/2/101
f 104/1/104 103/4/98 96/3/95 95/2/103
f 7/1/7 104/4/104 95/3/103 6/2/6
f 114/1/108 113/4/107 106/3/106 105/2/105
f 113/1/107 112/4/110 107/3/109 106/2/106
f 110/1/112 7/4/7 8/3/8 109/2/111
f 10/1/10 114/4/108 105/3/105 9/2/9
f 112/1/110 111/4/114 108/3/113 107/2/109
f 111/1/114 110/4/112 109/3/111 108/2/113
f 121/1/118 120/4/117 119/3/116 118/2/115
f 124/1/122 123/4/121 116/3/120 115/2/119
f 123/1/121 122/4/124 117/3/123 116/2/120
f 122/1/124 121/4/118 118/3/115 117/2/123
f 120/1/117 24/4/24 21/3/21 119/2/116
f 9/1/9 124/4/122 115/3/119 12/2/12
f 11/1/11 134/4/126 125/3/125 10/2/10
f 134/1/126 133/4/128 126/3/127 125/2/125
f 131/1/132 130/4/131 129/3/130 128/2/129
f 130/1/131 18/4/18 19/3/19 129/2/130
f 133/1/128 132/4/134 127/3/133 126/2/127
f 132/1/134 131/4/132 128/3/129 127/2/133
f 143/1/138 142/4/137 137/3/136 136/2/135
f 142/1/137 141/4/140 138/3/139 137/2/136
f 14/1/14 144/4/142 135/3/141 13/2/13
f 144/1/142 143/4/138 136/3/135 135/2/141
f 141/1/140 140/4/144 139/3/143 138/2/139
f 140/1/144 11/4/11 12/3/12 139/2/143
f 28/1/145 29/4/33 50/3/52 51/2/54
f 29/4/33 16/3/16 50/2/52
f 1/4/1 25/3/31 39/2/35
f 26/1/147 38/4/43 39/3/35 25/2/31
f 27/1/148 37/4/40 38/3/43 26/2/147
f 36/1/39 37/4/40 27/3/148 52/2/50
f 54/1/48 35/4/37 36/3/39 53/2/47
f 52/4/50 53/3/47 36/2/39
f 54/4/48 22/3/22 35/2/37
f 27/1/148 28/4/145 51/3/54 52/2/50
f 58/1/57 66/4/67 67/3/73 57/2/63
f 59/1/55 65/4/65 66/3/67 58/2/57
f 59/4/55 17/3/17 65/2/65
f 34/4/32 2/3/2 55/2/59
f 69/4/70 15/3/15 30/2/34
f 56/4/61 32/3/27 33/2/28
f 67/1/73 68/4/69 31/3/30 32/2/27
f 56/1/61 57/4/63 67/3/73 32/2/27
f 68/1/69 69/4/70 30/3/34 31/2/30
f 34/1/32 55/4/59 56/3/61 33/2/28
f 43/4/42 86/3/85 87/2/86
f 43/1/42 44/4/38 85/3/91 86/2/85
f 44/4/38 23/3/23 85/2/91
f 43/1/42 87/4/86 82/3/149 42/2/41
f 82/1/149 83/4/150 41/3/44 42/2/41
f 83/1/150 84/4/84 40/3/36 41/2/44
f 84/4/84 4/3/4 40/2/36
f 89/4/93 5/3/5 80/2/77
f 89/1/93 80/4/77 81/3/151 88/2/89
f 82/1/149 87/4/86 88/3/89 81/2/151
f 61/1/58 62/4/64 97/3/96 98/2/99
f 78/1/75 96/4/95 97/3/96 77/2/80
f 60/4/56 99/3/101 20/2/20
f 60/1/56 61/4/58 98/3/99 99/2/101
f 79/4/76 6/3/6 95/2/103
f 63/4/62 76/3/79 77/2/80
f 63/1/62 77/4/80 97/3/96 62/2/64
f 79/1/76 95/4/103 96/3/95 78/2/75
f 63/1/62 64/4/60 75/3/83 76/2/79
f 64/4/60 3/3/3 75/2/83
f 92/4/87 93/3/88 121/2/118
f 94/4/92 24/3/24 120/2/117
f 109/4/111 8/3/8 90/2/94
f 108/1/152 109/4/111 90/3/94 91/2/90
f 91/1/90 92/4/87 107/3/153 108/2/152
f 123/1/121 106/4/154 107/3/153 122/2/124
f 121/1/118 122/4/124 107/3/153 92/2/87
f 124/1/122 105/4/105 106/3/154 123/2/121
f 124/4/122 9/3/9 105/2/105
f 94/1/92 120/4/117 121/3/118 93/2/88
f 114/1/108 125/4/125 126/3/127 113/2/107
f 112/4/110 113/3/107 126/2/127
f 114/4/108 10/3/10 125/2/125
f 104/4/104 7/3/7 110/2/112
f 129/4/130 19/3/19 100/2/102
f 102/1/97 103/4/98 111/3/114 112/2/110
f 126/1/127 127/4/133 102/3/97 112/2/110
f 128/1/129 101/4/100 102/3/97 127/2/133
f 129/1/130 100/4/102 101/3/100 128/2/129
f 110/1/112 111/4/114 103/3/98 104/2/104
f 118/1/115 119/4/116 45/3/45 46/2/46
f 119/4/116 21/3/21 45/2/45
f 137/1/156 138/4/155 116/3/120 117/2/123
f 118/4/115 46/3/46 47/2/49
f 138/1/155 139/4/143 115/3/119 116/2/120
f 139/4/143 12/3/12 115/2/119
f 49/4/51 13/3/13 135/2/141
f 118/1/115 47/4/49 137/3/156 117/2/123
f 49/1/51 135/4/141 136/3/157 48/2/53
f 137/1/156 47/4/49 48/3/53 136/2/157
f 131/1/132 132/4/134 72/3/74 73/2/68
f 143/1/138 71/4/72 72/3/74 142/2/137
f 130/1/131 131/4/132 73/3/68 74/2/66
f 18/4/18 130/3/131 74/2/66
f 144/4/142 14/3/14 70/2/71
f 133/4/128 141/3/140 142/2/137
f 133/1/128 142/4/137 72/3/74 132/2/134
f 144/1/142 70/4/71 71/3/72 143/2/138
f 133/1/128 134/4/126 140/3/144 141/2/140
f 134/4/126 11/3/11 140/2/144

usemtl Gold-Top
f 20/4/20 19/3/19 18/2/18 17/1/17

