# WaveFront *.obj file (generated by CINEMA 4D)

v -2.85487508773804 -1.94998383522034 2.30670785903931
v -2.85487508773804 -0.53413319587708 2.30670785903931
v 1.84849143028259 -1.94998383522034 2.30670785903931
v 1.84849143028259 -0.53413319587708 2.30670785903931
v 1.84849143028259 -0.53413319587708 1.44879865646362
v 1.84849143028259 -1.94998383522034 1.44879865646362
v 1.84849143028259 -1.94998383522034 -2.30670785903931
v 1.84849143028259 -0.53413319587708 -2.30670785903931
v -2.85487508773804 -1.94998383522034 -2.30670785903931
v -2.85487508773804 -0.53413319587708 -2.30670785903931
v 1.84849143028259 -1.94998383522034 -1.44879865646362
v 1.84849143028259 -0.53413319587708 -1.44879865646362
v -2.85487508773804 -0.53413319587708 -1.0039039850235
v -2.85487508773804 -1.94998383522034 -1.0039039850235
v -2.85487508773804 -1.94998383522034 1.0039039850235
v -2.85487508773804 -0.53413319587708 1.0039039850235
v 2.6450674533844 -0.53413319587708 1.44879865646362
v 2.6450674533844 -1.94998383522034 1.44879865646362
v 2.6450674533844 -1.94998383522034 -1.44879865646362
v 2.6450674533844 -0.53413319587708 -1.44879865646362
v -2.87133646011353 -0.19907140731812 2.32285475730896
v 1.86495316028595 -0.19907140731812 2.32285475730896
v 1.84849143028259 0.56271725893021 1.44879865646362
v 1.86495316028595 -0.19907140731812 -2.32285475730896
v -2.87133646011353 -0.19907140731812 -2.32285475730896
v 1.84849143028259 0.56271725893021 -1.44879865646362
v -2.85487508773804 0.56271725893021 -1.0039039850235
v -2.85487508773804 0.56271725893021 1.0039039850235
v 2.6450674533844 0.56271725893021 1.44879865646362
v 2.6450674533844 0.56271725893021 -1.44879865646362
v -2.85487508773804 1.89398121833801 0.02633912488818
v 1.84849143028259 1.89398121833801 0.02633912488818
v 1.84849143028259 1.89398121833801 0.01146306935698
v 1.84849143028259 1.89398121833801 -0.02633912488818
v -2.85487508773804 1.89398121833801 -0.02633912488818
v 1.84849143028259 1.89398121833801 -0.01146306935698
v -2.85487508773804 1.89398121833801 -0.01146306935698
v -2.85487508773804 1.89398121833801 0.01146306935698
v 2.6450674533844 1.89398121833801 0.01146306935698
v 2.6450674533844 1.89398121833801 -0.01146306935698
v -2.87133646011353 -0.16358558833599 2.35519647598267
v 1.86495316028595 -0.16358558833599 2.35519647598267
v 1.84849143028259 0.59794235229492 1.48142421245575
v 1.86495316028595 -0.16358558833599 -2.35519647598267
v -2.87133646011353 -0.16358558833599 -2.35519647598267
v 1.84849143028259 0.59794235229492 -1.48142421245575
v 2.6450674533844 0.59794235229492 1.48142421245575
v 2.6450674533844 0.59794235229492 -1.48142421245575
v -2.85487508773804 1.94199395179749 0.04493611678481
v 1.84849143028259 1.94199395179749 0.04493611678481
v 1.84849143028259 1.94998383522034 0.02165543101728
v 1.84849143028259 1.94199395179749 -0.04493611678481
v -2.85487508773804 1.94199395179749 -0.04493611678481
v 1.84849143028259 1.94998383522034 -0.02165543101728
v -2.85487508773804 1.94199395179749 -0.01146306935698
v -2.85487508773804 1.94199395179749 0.01146306935698
v 2.6450674533844 1.94199395179749 0.03028194606304
v 2.6450674533844 1.94199395179749 -0.03028194606304
v -2.88606739044189 -0.19903011620045 2.3227870464325
v -2.88606739044189 -0.19903011620045 -2.3227870464325
v -2.86960625648499 1.89400196075439 0.02630529738963
v -2.86960625648499 1.89400196075439 -0.02630529738963
v -2.86960625648499 1.89398121833801 -0.01146306935698
v -2.86960625648499 1.89398121833801 0.01146306935698
v -2.88606739044189 -0.16354429721832 2.35512900352478
v -2.88606739044189 -0.16354429721832 -2.35512900352478
v -2.86960625648499 1.94201469421387 0.04490228369832
v -2.86960625648499 1.94201469421387 -0.04490228369832
v -2.86960625648499 1.94199395179749 -0.01146306935698
v -2.86960625648499 1.94199395179749 0.01146306935698
v 2.65979862213135 0.56271725893021 1.44879865646362
v 2.65979862213135 0.56271725893021 -1.44879865646362
v 2.65979862213135 1.89398121833801 0.01146306935698
v 2.65979862213135 1.89398121833801 -0.01146306935698
v 2.65979862213135 0.59794235229492 1.48142421245575
v 2.65979862213135 0.59794235229492 -1.48142421245575
v 2.65979862213135 1.94199395179749 0.03028194606304
v 2.65979862213135 1.94199395179749 -0.03028194606304
v -2.87141418457031 -0.21884390711784 2.34454941749573
v 1.86495316028595 -0.21884390711784 2.34454941749573
v -2.87141418457031 -0.18335826694965 2.37689113616943
v 1.86495316028595 -0.18335826694965 2.37689113616943
v -2.88622260093689 -0.2188024520874 2.34448146820068
v -2.88622260093689 -0.18331663310528 2.37682318687439
v 1.86495316028595 -0.21884390711784 -2.34454941749573
v -2.87141418457031 -0.21884390711784 -2.34454941749573
v 1.86495316028595 -0.18335826694965 -2.37689113616943
v -2.87141418457031 -0.18335826694965 -2.37689113616943
v -2.88622260093689 -0.2188024520874 -2.34448146820068
v -2.88622260093689 -0.18331663310528 -2.37682318687439
v 1.84849143028259 0.54277127981186 1.47033393383026
v 2.6450674533844 0.54277127981186 1.47033393383026
v 1.84849143028259 0.57799631357193 1.50295948982239
v 2.6450674533844 0.57799631357193 1.50295948982239
v 2.65979862213135 0.54277127981186 1.47033393383026
v 2.65979862213135 0.57799631357193 1.50295948982239
v 1.84849143028259 0.54277127981186 -1.47033393383026
v 2.6450674533844 0.54277127981186 -1.47033393383026
v 1.84849143028259 0.57799631357193 -1.50295948982239
v 2.6450674533844 0.57799631357193 -1.50295948982239
v 2.65979862213135 0.54277127981186 -1.47033393383026
v 2.65979862213135 0.57799631357193 -1.50295948982239
v 2.6450674533844 -0.53413319587708 0.00021129345987
v 2.6450674533844 -1.94998383522034 0.0002460598771
v 2.61778736114502 0.56271725893021 0.00021129345987
v 2.6450674533844 1.89398121833801 0.00000167154315
v 2.6450674533844 1.39742362499237 0.54758495092392
v 2.6450674533844 1.39742362499237 -0.54758507013321
v 2.6450674533844 1.47471439838409 0.00007985991397
v 2.6450674533844 -0.53413319587708 0.4125816822052
v 2.6450674533844 -1.94998383522034 0.65096658468246
v 2.6450674533844 -1.94998383522034 -0.65066426992416
v 2.6450674533844 -0.53413319587708 -0.41227939724922
v 2.6450674533844 0.56271725893021 0.4125816822052
v 2.6450674533844 0.56271725893021 -0.41227948665619
v 2.6450674533844 1.89398121833801 0.0032643948216
v 2.6450674533844 1.89398121833801 -0.00326200458221
v 2.6450674533844 1.39742362499237 0.15593852102756
v 2.6450674533844 1.39742362499237 -0.15582430362701
v 2.6450674533844 -0.45556685328484 0.00021129345987
v 2.6450674533844 0.99201095104218 0.00009554645658
v 2.6450674533844 -0.45556685328484 0.33401533961296
v 2.6450674533844 -0.45556685328484 -0.33371305465698
v 2.6450674533844 0.55091178417206 0.33401533961296
v 2.6450674533844 0.55091995000839 -0.33371311426163
v 2.6450674533844 0.91471982002258 0.19094035029411
v 2.6450674533844 0.91471982002258 -0.190813601017
v 2.6450674533844 -0.42937794327736 0.00021129345987
v 2.6450674533844 0.9637565612793 0.00009388942271
v 2.6450674533844 -0.42937794327736 0.30782651901245
v 2.6450674533844 -0.42937794327736 -0.30752423405647
v 2.6450674533844 0.54594713449478 0.30782651901245
v 2.6450674533844 0.54596096277237 -0.30752429366112
v 2.6450674533844 0.8946681022644 0.17068487405777
v 2.6450674533844 0.8946687579155 -0.17055287957191
v 2.61778736114502 -0.42937794327736 0.00021129345987
v 2.61778736114502 0.9637565612793 0.00009388942271
v 2.61778736114502 -0.42937794327736 0.30782651901245
v 2.61778736114502 -0.42937794327736 -0.30752423405647
v 2.61778736114502 0.54594713449478 0.30782651901245
v 2.61778736114502 0.54596096277237 -0.30752429366112
v 2.61778736114502 0.8946681022644 0.17068487405777
v 2.61778736114502 0.8946687579155 -0.17055287957191
v 2.6450674533844 -0.3508115708828 -1.26547694206238
v 2.6450674533844 0.37939563393593 -1.26547694206238
v 2.6450674533844 -0.35081174969673 -0.5956010222435
v 2.6450674533844 0.37939581274986 -0.5956010222435
v 2.6450674533844 -0.3508115708828 1.26547694206238
v 2.6450674533844 0.37939563393593 1.26547694206238
v 2.6450674533844 -0.3508115708828 0.59590327739716
v 2.6450674533844 0.37939563393593 0.59590327739716
v 2.6450674533844 -0.3180755674839 -1.23274099826813
v 2.6450674533844 0.34665963053703 -1.23274099826813
v 2.6450674533844 -0.31807574629784 -0.6283370256424
v 2.6450674533844 0.34665980935097 -0.6283370256424
v 2.6450674533844 -0.3180755674839 1.23274099826813
v 2.6450674533844 0.34665963053703 1.23274099826813
v 2.6450674533844 -0.3180755674839 0.62863928079605
v 2.6450674533844 0.34665963053703 0.62863928079605
v 2.61124014854431 -0.3180755674839 -1.23274099826813
v 2.61124014854431 0.34665963053703 -1.23274099826813
v 2.61124014854431 -0.31807574629784 -0.6283370256424
v 2.61124014854431 0.34665980935097 -0.6283370256424
v 2.61124014854431 -0.3180755674839 1.23274099826813
v 2.61124014854431 0.34665963053703 1.23274099826813
v 2.61124014854431 -0.3180755674839 0.62863928079605
v 2.61124014854431 0.34665963053703 0.62863928079605
v -2.85487508773804 -0.82802402973175 2.30670785903931
v 1.84849143028259 -0.82802402973175 2.30670785903931
v 1.84849143028259 -0.82802391052246 1.44879865646362
v 1.84849143028259 -0.82802402973175 -2.30670785903931
v -2.85487508773804 -0.82802402973175 -2.30670785903931
v 1.84849143028259 -0.82802402973175 -1.44879865646362
v -2.85487508773804 -0.82802391052246 -1.0039039850235
v -2.85487508773804 -0.82802402973175 1.0039039850235
v 2.6450674533844 -0.82802391052246 1.44879865646362
v 2.6450674533844 -0.82802402973175 -1.44879865646362
v 2.88622260093689 -0.82802391052246 0.0002460598771
v 2.6450674533844 -0.82802391052246 0.65096658468246
v 2.6450674533844 -0.82802402973175 -0.65066426992416
v 2.88622260093689 -0.53413319587708 0.00021129345987
v 2.88622260093689 -1.94998383522034 0.0002460598771
v 2.88622260093689 -0.53413319587708 0.4125816822052
v 2.88622260093689 -1.94998383522034 0.65096658468246
v 2.88622260093689 -1.94998383522034 -0.65066426992416
v 2.88622260093689 -0.53413319587708 -0.41227939724922
v 2.88622260093689 -0.82802391052246 0.65096658468246
v 2.88622260093689 -0.82802402973175 -0.65066426992416
v 2.88622260093689 -1.04787838459015 0.00024606729858
v 2.88622260093689 -1.93850386142731 0.0002460598771
v 2.88622260093689 -1.93850386142731 0.53529942035675
v 2.88622260093689 -1.93850386142731 -0.53499710559845
v 2.88622260093689 -1.04787826538086 0.53529942035675
v 2.88622260093689 -1.04787838459015 -0.53499710559845
v 2.65052342414856 -1.04787838459015 0.00024606729858
v 2.65052342414856 -1.93850386142731 0.0002460598771
v 2.65052342414856 -1.93850386142731 0.53529942035675
v 2.65052342414856 -1.93850386142731 -0.53499710559845
v 2.65052342414856 -1.04787826538086 0.53529942035675
v 2.65052342414856 -1.04787838459015 -0.53499710559845
# 200 vertices

vn 0 0 1
vn 1 0 0
vn 0 0 -1
vn -1 0 0
vn -0.00086111633573 0.98636847734451 0.16454942524433
vn -0.00117106700782 0.98636823892593 -0.16454900801182
vn 0 -1 0
vn -0.00169875612482 0.99999856948853 0
vn 0 0 0
vn 0.01002977881581 0.99994969367981 0
vn 0 -0.04813494905829 0.99884086847305
vn 0.99929738044739 -0.02309074066579 -0.02952187508345
vn -0.99967926740646 -0.02454295940697 -0.00624184403569
vn 0.99965435266495 -0.02454410493374 0.00941844657063
vn 0 -0.04813494905829 -0.99884086847305
vn -0.99952507019043 -0.02357325144112 0.01984667778015
vn 0 0.73908871412277 0.67360812425613
vn 0.97660881280899 -0.15587972104549 -0.14811037480831
vn -0.99990969896317 -0.00795496348292 -0.01083319913596
vn 0.98187780380249 -0.13836960494518 0.12949857115746
vn 0 0.73908871412277 -0.67360812425613
vn -0.99993103742599 -0.00423500407487 0.01095631811768
vn 0.00000003760654 0.73365950584412 0.67951726913452
vn 0.00000003783009 0.73365950584412 -0.67951726913452
vn 0 -0.67360782623291 0.73908895254135
vn 0.99998551607132 0.00279972096905 -0.00459503335878
vn -0.99998551607132 0.00280416244641 -0.00459081819281
vn 0 -0.67360782623291 -0.73908895254135
vn -0.99998551607132 0.00279966159724 0.00459491414949
vn 0.99998551607132 0.00280422461219 0.00459091598168
vn 0 -0.67951774597168 0.7336590886116
vn 0 -0.67951774597168 -0.7336590886116
vn -0.00070403126301 -0.99999952316284 0.00069876317866
vn 0.00070474325912 0.99999970197678 -0.00031015076092
vn -0.0007056351169 -0.99999952316284 -0.00069876248017
vn 0.0007040311466 0.99999970197678 0.00031015105196
vn 0 1 0
vn 0.00076872401405 -0.73909038305283 -0.67360579967499
vn -0.00528100505471 -0.67359757423401 0.73907947540283
vn -0.00076052802615 0.73909032344818 0.67360585927963
vn 0.00076228892431 -0.73909038305283 0.67360579967499
vn -0.00076060649008 0.73909038305283 -0.67360585927963
vn -0.00528106046841 -0.67359751462936 -0.73907947540283
vn 0.00000258160162 -0.73365950584412 -0.67951726913452
vn 0 0.73365950584412 0.67951726913452
vn 0 -0.67951768636703 0.7336590886116
vn 0 -0.73365950584412 0.67951732873917
vn 0 -0.67951768636703 -0.7336590886116
vn 0 0.73365950584412 -0.67951726913452
vn 0 -0.73909026384354 -0.67360639572144
vn 0 0.73908722400665 0.67360973358154
vn -0.00101330422331 0.73908877372742 0.67360728979111
vn -0.99998599290848 0.00356182036921 -0.00390806887299
vn 0.00102319684811 -0.73909211158752 -0.67360359430313
vn 0 -0.73909026384354 0.67360639572144
vn 0 0.73908722400665 -0.67360973358154
vn 0.00102319533471 -0.73909217119217 0.67360353469849
vn -0.99998599290848 0.00356182060204 0.00390806840733
vn -0.00101330818143 0.73908871412277 -0.67360728979111
vn 0 -0.73366034030914 -0.67951637506485
vn 0 0.73365926742554 0.6795175075531
vn 0 0.73365932703018 0.67951744794846
vn 0 -0.73366034030914 0.67951637506485
vn 0 0.73365926742554 -0.6795175075531
vn 0 0.73365932703018 -0.67951744794846
vn 0 -0.73365938663483 -0.67951738834381
vn 0 0.00000006111173 1
vn 0 -0.36598554253578 -0.93062055110931
vn 0 -0.92687171697617 -0.3753781914711
vn 0 -0.36560395359993 0.93077051639557
vn 0 -0.92691564559937 0.37526974081993
vn 0 1 0.00000029585169
vn 0 -1 0.00000029585169
vn 0 0.62995338439941 -0.77663296461105
vn 0 0.62995362281799 0.77663278579712
vn 0 -1 0.00000022279887
# 76 normals

o House_14
usemtl White
f 3//1 169//1 168//1 1//1
f 170//2 5//2 4//2 169//2
f 171//2 8//2 12//2 173//2
f 172//3 10//3 8//3 171//3
f 14//4 174//4 172//4 9//4
f 168//4 2//4 16//4 175//4
f 50//5 51//5 56//5 49//5
f 54//6 52//6 53//6 55//6
f 7//7 11//7 14//7 9//7
f 6//7 3//7 1//7 15//7
f 176//2 18//2 111//2 179//2
f 11//7 6//7 15//7 14//7
f 51//8 54//8 55//8 56//8
f 174//4 14//4 15//4 175//4
f 170//1 6//1 18//1 176//1
f 11//7 19//7 112//7 104//7 111//7 18//7 6//7
f 173//3 12//3 20//3 177//3
f 51//10 57//10 58//10 54//10
f 4//11 22//11 21//11 2//11
f 5//12 23//12 22//12 4//12
f 2//13 21//13 28//13 16//13
f 8//14 24//14 26//14 12//14
f 10//15 25//15 24//15 8//15
f 13//16 27//16 25//16 10//16
f 16//4 28//4 27//4 13//4
f 17//1 29//1 23//1 5//1
f 162//2 160//2 161//2 163//2
f 12//3 26//3 30//3 20//3
f 42//17 50//17 49//17 41//17
f 23//18 33//18 32//18 22//18
f 21//19 31//19 38//19 28//19
f 24//20 34//20 36//20 26//20
f 45//21 53//21 52//21 44//21
f 27//22 37//22 35//22 25//22
f 28//4 38//4 37//4 27//4
f 47//23 57//23 51//23 43//23
f 109//2 119//2 117//2 106//2
f 46//24 54//24 58//24 48//24
f 33//2 51//2 50//2 32//2
f 61//4 67//4 70//4 64//4
f 34//2 52//2 54//2 36//2
f 63//4 69//4 68//4 62//4
f 64//4 70//4 69//4 63//4
f 74//2 78//2 77//2 73//2
f 80//25 82//25 81//25 79//25
f 32//26 50//26 42//26 22//26
f 59//27 65//27 67//27 61//27
f 86//28 88//28 87//28 85//28
f 62//29 68//29 66//29 60//29
f 24//30 44//30 52//30 34//30
f 92//31 94//31 93//31 91//31
f 73//2 77//2 75//2 71//2
f 23//4 43//4 51//4 33//4
f 97//32 99//32 100//32 98//32
f 36//4 54//4 46//4 26//4
f 72//2 76//2 78//2 74//2
f 31//33 61//33 64//33 38//33
f 56//34 70//34 67//34 49//34
f 37//35 63//35 62//35 35//35
f 53//36 68//36 69//36 55//36
f 38//7 64//7 63//7 37//7
f 55//37 69//37 70//37 56//37
f 21//38 59//38 61//38 31//38
f 81//39 84//39 83//39 79//39
f 49//40 67//40 65//40 41//40
f 35//41 62//41 60//41 25//41
f 45//42 66//42 68//42 53//42
f 86//43 89//43 90//43 88//43
f 116//9 106//7 117//7 40//7 74//7 73//7 39//7
f 57//37 77//37 78//37 58//37
f 107//44 39//66 73//66 71//44 29//44
f 47//45 75//45 77//45 57//45
f 92//46 95//46 96//46 94//46
f 108//9 30//47 72//47 74//47 40//47
f 100//48 102//48 101//48 98//48
f 58//49 78//49 76//49 48//49
f 22//50 80//50 79//50 21//50
f 42//2 82//2 80//2 22//2
f 41//51 81//51 82//51 42//51
f 65//52 84//52 81//52 41//52
f 59//53 83//53 84//53 65//53
f 21//54 79//54 83//54 59//54
f 25//55 86//55 85//55 24//55
f 44//56 87//56 88//56 45//56
f 24//2 85//2 87//2 44//2
f 60//57 89//57 86//57 25//57
f 66//58 90//58 89//58 60//58
f 45//59 88//59 90//59 66//59
f 29//60 92//60 91//60 23//60
f 43//61 93//61 94//61 47//61
f 23//4 91//4 93//4 43//4
f 71//60 95//60 92//60 29//60
f 75//2 96//2 95//2 71//2
f 47//62 94//62 96//62 75//62
f 26//63 97//63 98//63 30//63
f 46//4 99//4 97//4 26//4
f 48//64 100//64 99//64 46//64
f 76//65 102//65 100//65 48//65
f 72//2 101//2 102//2 76//2
f 30//63 98//63 101//63 72//63
f 195//2 196//2 198//2 200//2
f 105//2 140//2 138//2 136//2
f 118//2 107//2 29//2 114//2
f 119//2 115//2 30//2 108//2
f 118//2 109//2 106//2 116//2
f 199//2 197//2 196//2 195//2
f 141//2 105//2 136//2 139//2
f 119//2 108//2 40//2 117//2
f 180//2 177//2 20//2 113//2
f 167//2 165//2 164//2 166//2
f 140//2 105//2 137//2 142//2
f 143//2 137//2 105//2 141//2
f 116//2 39//2 107//2 118//2
f 110//2 122//2 124//2 114//2
f 103//2 120//2 122//2 110//2
f 115//2 125//2 123//2 113//2
f 113//2 123//2 120//2 103//2
f 114//2 124//2 126//2 118//2
f 118//2 126//2 121//2 109//2
f 119//2 127//2 125//2 115//2
f 109//2 121//2 127//2 119//2
f 122//2 130//2 132//2 124//2
f 120//2 128//2 130//2 122//2
f 125//2 133//2 131//2 123//2
f 123//2 131//2 128//2 120//2
f 124//2 132//2 134//2 126//2
f 126//2 134//2 129//2 121//2
f 127//2 135//2 133//2 125//2
f 121//2 129//2 135//2 127//2
f 130//3 138//3 140//3 132//3
f 128//37 136//37 138//37 130//37
f 133//67 141//67 139//67 131//67
f 131//37 139//37 136//37 128//37
f 132//68 140//68 142//68 134//68
f 134//69 142//69 137//69 129//69
f 135//70 143//70 141//70 133//70
f 129//71 137//71 143//71 135//71
f 113//2 146//2 147//2 115//2
f 20//2 144//2 146//2 113//2
f 30//2 145//2 144//2 20//2
f 115//2 147//2 145//2 30//2
f 114//2 151//2 150//2 110//2
f 29//2 149//2 151//2 114//2
f 17//2 148//2 149//2 29//2
f 110//2 150//2 148//2 17//2
f 146//2 154//2 155//2 147//2
f 144//2 152//2 154//2 146//2
f 145//2 153//2 152//2 144//2
f 147//2 155//2 153//2 145//2
f 151//2 159//2 158//2 150//2
f 149//2 157//2 159//2 151//2
f 148//2 156//2 157//2 149//2
f 150//2 158//2 156//2 148//2
f 154//3 162//3 163//3 155//3
f 152//72 160//72 162//72 154//72
f 153//1 161//1 160//1 152//1
f 155//73 163//73 161//73 153//73
f 159//1 167//1 166//1 158//1
f 157//7 165//7 167//7 159//7
f 156//3 164//3 165//3 157//3
f 158//37 166//37 164//37 156//37
f 169//1 4//1 2//1 168//1
f 169//2 3//2 6//2 170//2
f 173//2 11//2 7//2 171//2
f 171//3 7//3 9//3 172//3
f 174//4 13//4 10//4 172//4
f 175//4 15//4 1//4 168//4
f 179//2 110//2 17//2 176//2
f 175//4 16//4 13//4 174//4
f 176//1 17//1 5//1 170//1
f 177//3 19//3 11//3 173//3
f 188//2 186//2 181//2 178//2
f 178//2 181//2 183//2 187//2
f 180//2 112//2 19//2 177//2
f 112//7 185//7 182//7 104//7
f 180//3 188//3 185//3 112//3
f 111//1 184//1 187//1 179//1
f 104//7 182//7 184//7 111//7
f 113//74 186//74 188//74 180//74
f 103//37 181//37 186//37 113//37
f 110//37 183//37 181//37 103//37
f 179//75 187//75 183//75 110//75
f 178//2 189//2 194//2 188//2
f 185//2 192//2 190//2 182//2
f 188//2 194//2 192//2 185//2
f 187//2 193//2 189//2 178//2
f 184//2 191//2 193//2 187//2
f 182//2 190//2 191//2 184//2
f 189//7 195//7 200//7 194//7
f 192//37 198//37 196//37 190//37
f 194//1 200//1 198//1 192//1
f 193//76 199//76 195//76 189//76
f 191//3 197//3 199//3 193//3
f 190//37 196//37 197//37 191//37

