# WaveFront *.obj file (generated by CINEMA 4D)

v 0 0 0.04500000178814
v 0 0 -0.04500000178814
v 3.15000009536743 0 0.04500000178814
v 3.15000009536743 0 -0.04500000178814
v 2.22738647460938 -2.22738647460938 0.04500000178814
v 2.22738647460938 -2.22738647460938 -0.04500000178814
v 0 -3.15000009536743 0.04500000178814
v 0 -3.15000009536743 -0.04500000178814
v -2.22738647460938 -2.22738647460938 0.04500000178814
v -2.22738647460938 -2.22738647460938 -0.04500000178814
v -3.15000009536743 -0 0.04500000178814
v -3.15000009536743 -0 -0.04500000178814
v -2.22738647460938 2.22738647460938 0.04500000178814
v -2.22738647460938 2.22738647460938 -0.04500000178814
v -0 3.15000009536743 0.04500000178814
v -0 3.15000009536743 -0.04500000178814
v 2.22738647460938 2.22738647460938 0.04500000178814
v 2.22738647460938 2.22738647460938 -0.04500000178814
# 18 vertices

vn 0 0 1
vn 0 0 0
vn 0.92387956380844 -0.38268342614174 0
vn 0 0 -1
vn 0.38268342614174 -0.92387956380844 0
vn -0.38268342614174 -0.92387956380844 0
vn -0.92387956380844 -0.38268342614174 0
vn -0.92387956380844 0.38268342614174 0
vn -0.38268342614174 0.92387956380844 0
vn 0.38268342614174 0.92387956380844 0
vn 0.92387956380844 0.38268342614174 0
# 11 normals

vt 0.5 0.5 0
vt 0 0.5 0
vt 0.14644661545753 0.85355341434479 0
vt 0 0 0
vt 0 1 0
vt 0.125 1 0
vt 0.125 0 0
vt 1 0.5 0
vt 0.85355341434479 0.85355341434479 0
vt 0.5 1 0
vt 0.25 1 0
vt 0.25 0 0
vt 0.375 1 0
vt 0.375 0 0
vt 0.5 0 0
vt 0.85355341434479 0.14644658565521 0
vt 0.625 1 0
vt 0.625 0 0
vt 0.14644661545753 0.14644658565521 0
vt 0.75 1 0
vt 0.75 0 0
vt 0.875 1 0
vt 0.875 0 0
vt 1 1 0
vt 1 0 0
# 25 texture coordinates

o Måne
usemtl default
f 5/3/1 3/2/1 1/1/1
f 5/7/3 6/6/3 4/5/3 3/4/3
f 6/9/4 2/1/4 4/8/4
f 7/10/1 5/3/1 1/1/1
f 7/12/5 8/11/5 6/6/5 5/7/5
f 8/10/4 2/1/4 6/9/4
f 9/9/1 7/10/1 1/1/1
f 9/14/6 10/13/6 8/11/6 7/12/6
f 10/3/4 2/1/4 8/10/4
f 11/8/1 9/9/1 1/1/1
f 11/15/7 12/10/7 10/13/7 9/14/7
f 12/2/4 2/1/4 10/3/4
f 13/16/1 11/8/1 1/1/1
f 13/18/8 14/17/8 12/10/8 11/15/8
f 14/19/4 2/1/4 12/2/4
f 15/15/1 13/16/1 1/1/1
f 15/21/9 16/20/9 14/17/9 13/18/9
f 16/15/4 2/1/4 14/19/4
f 17/19/1 15/15/1 1/1/1
f 17/23/10 18/22/10 16/20/10 15/21/10
f 18/16/4 2/1/4 16/15/4
f 3/2/1 17/19/1 1/1/1
f 3/25/11 4/24/11 18/22/11 17/23/11
f 4/8/4 2/1/4 18/16/4

