# WaveFront *.obj file (generated by CINEMA 4D)

mtllib ./PageStraight.mtl

v -14.98333358764648 0.25 19.60000038146973
v -14.98333358764648 0.44999998807907 19.60000038146973
v -12.08333301544189 0.25 19.60000038146973
v -12.08333301544189 0.44999998807907 19.60000038146973
v -9.18333339691162 0.25 19.60000038146973
v -9.18333339691162 0.44999998807907 19.60000038146973
v -6.28333330154419 0.25 19.60000038146973
v -6.28333330154419 0.44999998807907 19.60000038146973
v -3.38333344459534 0.25 19.60000038146973
v -3.38333344459534 0.44999998807907 19.60000038146973
v -0.48333331942558 0.25 19.60000038146973
v -0.48333331942558 0.44999998807907 19.60000038146973
v 2.41666674613953 0.25 19.60000038146973
v 2.41666674613953 0.44999998807907 19.60000038146973
v 5.31666660308838 0.25 19.60000038146973
v 5.31666660308838 0.44999998807907 19.60000038146973
v 8.21666622161865 0.25 19.60000038146973
v 8.21666622161865 0.44999998807907 19.60000038146973
v 11.11666679382324 0.25 19.60000038146973
v 11.11666679382324 0.44999998807907 19.60000038146973
v 14.01666641235352 0.25 19.60000038146973
v 14.01666641235352 0.44999998807907 19.60000038146973
v 14.01666641235352 0.25 15.68000030517578
v 14.01666641235352 0.44999998807907 15.68000030517578
v 14.01666641235352 0.25 11.76000022888184
v 14.01666641235352 0.44999998807907 11.76000022888184
v 14.01666641235352 0.25 7.84000015258789
v 14.01666641235352 0.44999998807907 7.84000015258789
v 14.01666641235352 0.25 3.92000007629395
v 14.01666641235352 0.44999998807907 3.92000007629395
v 14.01666641235352 0.25 0
v 14.01666641235352 0.44999998807907 0
v 14.01666641235352 0.25 -3.92000007629395
v 14.01666641235352 0.44999998807907 -3.92000007629395
v 14.01666641235352 0.25 -7.84000015258789
v 14.01666641235352 0.44999998807907 -7.84000015258789
v 14.01666641235352 0.25 -11.76000022888184
v 14.01666641235352 0.44999998807907 -11.76000022888184
v 14.01666641235352 0.25 -15.68000030517578
v 14.01666641235352 0.44999998807907 -15.68000030517578
v 14.01666641235352 0.25 -19.60000038146973
v 14.01666641235352 0.44999998807907 -19.60000038146973
v 11.11666679382324 0.25 -19.60000038146973
v 11.11666679382324 0.44999998807907 -19.60000038146973
v 8.21666622161865 0.25 -19.60000038146973
v 8.21666622161865 0.44999998807907 -19.60000038146973
v 5.31666660308838 0.25 -19.60000038146973
v 5.31666660308838 0.44999998807907 -19.60000038146973
v 2.41666674613953 0.25 -19.60000038146973
v 2.41666674613953 0.44999998807907 -19.60000038146973
v -0.48333331942558 0.25 -19.60000038146973
v -0.48333331942558 0.44999998807907 -19.60000038146973
v -3.38333344459534 0.25 -19.60000038146973
v -3.38333344459534 0.44999998807907 -19.60000038146973
v -6.28333330154419 0.25 -19.60000038146973
v -6.28333330154419 0.44999998807907 -19.60000038146973
v -9.18333339691162 0.25 -19.60000038146973
v -9.18333339691162 0.44999998807907 -19.60000038146973
v -12.08333301544189 0.25 -19.60000038146973
v -12.08333301544189 0.44999998807907 -19.60000038146973
v -14.98333358764648 0.25 -19.60000038146973
v -14.98333358764648 0.44999998807907 -19.60000038146973
v -14.98333358764648 0.25 -15.68000030517578
v -14.98333358764648 0.44999998807907 -15.68000030517578
v -14.98333358764648 0.25 -11.76000022888184
v -14.98333358764648 0.44999998807907 -11.76000022888184
v -14.98333358764648 0.25 -7.84000015258789
v -14.98333358764648 0.44999998807907 -7.84000015258789
v -14.98333358764648 0.25 -3.92000007629395
v -14.98333358764648 0.44999998807907 -3.92000007629395
v -14.98333358764648 0.25 0
v -14.98333358764648 0.44999998807907 0
v -14.98333358764648 0.25 3.92000007629395
v -14.98333358764648 0.44999998807907 3.92000007629395
v -14.98333358764648 0.25 7.84000015258789
v -14.98333358764648 0.44999998807907 7.84000015258789
v -14.98333358764648 0.25 11.76000022888184
v -14.98333358764648 0.44999998807907 11.76000022888184
v -14.98333358764648 0.25 15.68000030517578
v -14.98333358764648 0.44999998807907 15.68000030517578
v -12.08333301544189 0.44999998807907 15.68000030517578
v -12.08333301544189 0.44999998807907 11.76000022888184
v -12.08333301544189 0.44999998807907 7.84000015258789
v -12.08333301544189 0.44999998807907 3.92000007629395
v -12.08333301544189 0.44999998807907 0
v -12.08333301544189 0.44999998807907 -3.92000007629395
v -12.08333301544189 0.44999998807907 -7.84000015258789
v -12.08333301544189 0.44999998807907 -11.76000022888184
v -12.08333301544189 0.44999998807907 -15.68000030517578
v -9.18333339691162 0.44999998807907 15.68000030517578
v -9.18333339691162 0.44999998807907 11.76000022888184
v -9.18333339691162 0.44999998807907 7.84000015258789
v -9.18333339691162 0.44999998807907 3.92000007629395
v -9.18333339691162 0.44999998807907 0
v -9.18333339691162 0.44999998807907 -3.92000007629395
v -9.18333339691162 0.44999998807907 -7.84000015258789
v -9.18333339691162 0.44999998807907 -11.76000022888184
v -9.18333339691162 0.44999998807907 -15.68000030517578
v -6.28333330154419 0.44999998807907 15.68000030517578
v -6.28333330154419 0.44999998807907 11.76000022888184
v -6.28333330154419 0.44999998807907 7.84000015258789
v -6.28333330154419 0.44999998807907 3.92000007629395
v -6.28333330154419 0.44999998807907 0
v -6.28333330154419 0.44999998807907 -3.92000007629395
v -6.28333330154419 0.44999998807907 -7.84000015258789
v -6.28333330154419 0.44999998807907 -11.76000022888184
v -6.28333330154419 0.44999998807907 -15.68000030517578
v -3.38333344459534 0.44999998807907 15.68000030517578
v -3.38333344459534 0.44999998807907 11.76000022888184
v -3.38333344459534 0.44999998807907 7.84000015258789
v -3.38333344459534 0.44999998807907 3.92000007629395
v -3.38333344459534 0.44999998807907 0
v -3.38333344459534 0.44999998807907 -3.92000007629395
v -3.38333344459534 0.44999998807907 -7.84000015258789
v -3.38333344459534 0.44999998807907 -11.76000022888184
v -3.38333344459534 0.44999998807907 -15.68000030517578
v -0.48333331942558 0.44999998807907 15.68000030517578
v -0.48333331942558 0.44999998807907 11.76000022888184
v -0.48333331942558 0.44999998807907 7.84000015258789
v -0.48333331942558 0.44999998807907 3.92000007629395
v -0.48333331942558 0.44999998807907 0
v -0.48333331942558 0.44999998807907 -3.92000007629395
v -0.48333331942558 0.44999998807907 -7.84000015258789
v -0.48333331942558 0.44999998807907 -11.76000022888184
v -0.48333331942558 0.44999998807907 -15.68000030517578
v 2.41666674613953 0.44999998807907 15.68000030517578
v 2.41666674613953 0.44999998807907 11.76000022888184
v 2.41666674613953 0.44999998807907 7.84000015258789
v 2.41666674613953 0.44999998807907 3.92000007629395
v 2.41666674613953 0.44999998807907 0
v 2.41666674613953 0.44999998807907 -3.92000007629395
v 2.41666674613953 0.44999998807907 -7.84000015258789
v 2.41666674613953 0.44999998807907 -11.76000022888184
v 2.41666674613953 0.44999998807907 -15.68000030517578
v 5.31666660308838 0.44999998807907 15.68000030517578
v 5.31666660308838 0.44999998807907 11.76000022888184
v 5.31666660308838 0.44999998807907 7.84000015258789
v 5.31666660308838 0.44999998807907 3.92000007629395
v 5.31666660308838 0.44999998807907 0
v 5.31666660308838 0.44999998807907 -3.92000007629395
v 5.31666660308838 0.44999998807907 -7.84000015258789
v 5.31666660308838 0.44999998807907 -11.76000022888184
v 5.31666660308838 0.44999998807907 -15.68000030517578
v 8.21666622161865 0.44999998807907 15.68000030517578
v 8.21666622161865 0.44999998807907 11.76000022888184
v 8.21666622161865 0.44999998807907 7.84000015258789
v 8.21666622161865 0.44999998807907 3.92000007629395
v 8.21666622161865 0.44999998807907 0
v 8.21666622161865 0.44999998807907 -3.92000007629395
v 8.21666622161865 0.44999998807907 -7.84000015258789
v 8.21666622161865 0.44999998807907 -11.76000022888184
v 8.21666622161865 0.44999998807907 -15.68000030517578
v 11.11666679382324 0.44999998807907 15.68000030517578
v 11.11666679382324 0.44999998807907 11.76000022888184
v 11.11666679382324 0.44999998807907 7.84000015258789
v 11.11666679382324 0.44999998807907 3.92000007629395
v 11.11666679382324 0.44999998807907 0
v 11.11666679382324 0.44999998807907 -3.92000007629395
v 11.11666679382324 0.44999998807907 -7.84000015258789
v 11.11666679382324 0.44999998807907 -11.76000022888184
v 11.11666679382324 0.44999998807907 -15.68000030517578
v -12.08333301544189 0.25 -15.68000030517578
v -12.08333301544189 0.25 -11.76000022888184
v -12.08333301544189 0.25 -7.84000015258789
v -12.08333301544189 0.25 -3.92000007629395
v -12.08333301544189 0.25 0
v -12.08333301544189 0.25 3.92000007629395
v -12.08333301544189 0.25 7.84000015258789
v -12.08333301544189 0.25 11.76000022888184
v -12.08333301544189 0.25 15.68000030517578
v -9.18333339691162 0.25 -15.68000030517578
v -9.18333339691162 0.25 -11.76000022888184
v -9.18333339691162 0.25 -7.84000015258789
v -9.18333339691162 0.25 -3.92000007629395
v -9.18333339691162 0.25 0
v -9.18333339691162 0.25 3.92000007629395
v -9.18333339691162 0.25 7.84000015258789
v -9.18333339691162 0.25 11.76000022888184
v -9.18333339691162 0.25 15.68000030517578
v -6.28333330154419 0.25 -15.68000030517578
v -6.28333330154419 0.25 -11.76000022888184
v -6.28333330154419 0.25 -7.84000015258789
v -6.28333330154419 0.25 -3.92000007629395
v -6.28333330154419 0.25 0
v -6.28333330154419 0.25 3.92000007629395
v -6.28333330154419 0.25 7.84000015258789
v -6.28333330154419 0.25 11.76000022888184
v -6.28333330154419 0.25 15.68000030517578
v -3.38333344459534 0.25 -15.68000030517578
v -3.38333344459534 0.25 -11.76000022888184
v -3.38333344459534 0.25 -7.84000015258789
v -3.38333344459534 0.25 -3.92000007629395
v -3.38333344459534 0.25 0
v -3.38333344459534 0.25 3.92000007629395
v -3.38333344459534 0.25 7.84000015258789
v -3.38333344459534 0.25 11.76000022888184
v -3.38333344459534 0.25 15.68000030517578
v -0.48333331942558 0.25 -15.68000030517578
v -0.48333331942558 0.25 -11.76000022888184
v -0.48333331942558 0.25 -7.84000015258789
v -0.48333331942558 0.25 -3.92000007629395
v -0.48333331942558 0.25 0
v -0.48333331942558 0.25 3.92000007629395
v -0.48333331942558 0.25 7.84000015258789
v -0.48333331942558 0.25 11.76000022888184
v -0.48333331942558 0.25 15.68000030517578
v 2.41666674613953 0.25 -15.68000030517578
v 2.41666674613953 0.25 -11.76000022888184
v 2.41666674613953 0.25 -7.84000015258789
v 2.41666674613953 0.25 -3.92000007629395
v 2.41666674613953 0.25 0
v 2.41666674613953 0.25 3.92000007629395
v 2.41666674613953 0.25 7.84000015258789
v 2.41666674613953 0.25 11.76000022888184
v 2.41666674613953 0.25 15.68000030517578
v 5.31666660308838 0.25 -15.68000030517578
v 5.31666660308838 0.25 -11.76000022888184
v 5.31666660308838 0.25 -7.84000015258789
v 5.31666660308838 0.25 -3.92000007629395
v 5.31666660308838 0.25 0
v 5.31666660308838 0.25 3.92000007629395
v 5.31666660308838 0.25 7.84000015258789
v 5.31666660308838 0.25 11.76000022888184
v 5.31666660308838 0.25 15.68000030517578
v 8.21666622161865 0.25 -15.68000030517578
v 8.21666622161865 0.25 -11.76000022888184
v 8.21666622161865 0.25 -7.84000015258789
v 8.21666622161865 0.25 -3.92000007629395
v 8.21666622161865 0.25 0
v 8.21666622161865 0.25 3.92000007629395
v 8.21666622161865 0.25 7.84000015258789
v 8.21666622161865 0.25 11.76000022888184
v 8.21666622161865 0.25 15.68000030517578
v 11.11666679382324 0.25 -15.68000030517578
v 11.11666679382324 0.25 -11.76000022888184
v 11.11666679382324 0.25 -7.84000015258789
v 11.11666679382324 0.25 -3.92000007629395
v 11.11666679382324 0.25 0
v 11.11666679382324 0.25 3.92000007629395
v 11.11666679382324 0.25 7.84000015258789
v 11.11666679382324 0.25 11.76000022888184
v 11.11666679382324 0.25 15.68000030517578
# 242 vertices

vn 0 0 1
vn 1 0 0
vn 0 0 -1
vn -1 0 0
vn 0 1 0
vn 0 -1 0
# 6 normals

vt 0 0 0
vt 0 1 0
vt 0.10000000149012 1 0
vt 0.10000000149012 0 0
vt 0.20000000298023 1 0
vt 0.20000000298023 0 0
vt 0.30000001192093 1 0
vt 0.30000001192093 0 0
vt 0.40000000596046 1 0
vt 0.40000000596046 0 0
vt 0.5 1 0
vt 0.5 0 0
vt 0.60000002384186 1 0
vt 0.60000002384186 0 0
vt 0.69999998807907 1 0
vt 0.69999998807907 0 0
vt 0.80000001192093 1 0
vt 0.80000001192093 0 0
vt 0.89999997615814 1 0
vt 0.89999997615814 0 0
vt 1 1 0
vt 1 0 0
vt 0 0.10000002384186 0
vt 0.10000000149012 0.10000002384186 0
vt 0.20000000298023 0.10000002384186 0
vt 0.30000001192093 0.10000002384186 0
vt 0.40000000596046 0.10000002384186 0
vt 0.5 0.10000002384186 0
vt 0.60000002384186 0.10000002384186 0
vt 0.69999998807907 0.10000002384186 0
vt 0.80000001192093 0.10000002384186 0
vt 0.89999997615814 0.10000002384186 0
vt 1 0.10000002384186 0
vt 0 0.20000004768372 0
vt 0.10000000149012 0.20000004768372 0
vt 0.20000000298023 0.20000004768372 0
vt 0.30000001192093 0.20000004768372 0
vt 0.40000000596046 0.20000004768372 0
vt 0.5 0.20000004768372 0
vt 0.60000002384186 0.20000004768372 0
vt 0.69999998807907 0.20000004768372 0
vt 0.80000001192093 0.20000004768372 0
vt 0.89999997615814 0.20000004768372 0
vt 1 0.20000004768372 0
vt 0 0.30000007152557 0
vt 0.10000000149012 0.30000007152557 0
vt 0.20000000298023 0.30000007152557 0
vt 0.30000001192093 0.30000007152557 0
vt 0.40000000596046 0.30000007152557 0
vt 0.5 0.30000007152557 0
vt 0.60000002384186 0.30000007152557 0
vt 0.69999998807907 0.30000007152557 0
vt 0.80000001192093 0.30000007152557 0
vt 0.89999997615814 0.30000007152557 0
vt 1 0.30000007152557 0
vt 0 0.39999997615814 0
vt 0.10000000149012 0.39999997615814 0
vt 0.20000000298023 0.39999997615814 0
vt 0.30000001192093 0.39999997615814 0
vt 0.40000000596046 0.39999997615814 0
vt 0.5 0.39999997615814 0
vt 0.60000002384186 0.39999997615814 0
vt 0.69999998807907 0.39999997615814 0
vt 0.80000001192093 0.39999997615814 0
vt 0.89999997615814 0.39999997615814 0
vt 1 0.39999997615814 0
vt 0 0.5 0
vt 0.10000000149012 0.5 0
vt 0.20000000298023 0.5 0
vt 0.30000001192093 0.5 0
vt 0.40000000596046 0.5 0
vt 0.5 0.5 0
vt 0.60000002384186 0.5 0
vt 0.69999998807907 0.5 0
vt 0.80000001192093 0.5 0
vt 0.89999997615814 0.5 0
vt 1 0.5 0
vt 0 0.60000002384186 0
vt 0.10000000149012 0.60000002384186 0
vt 0.20000000298023 0.60000002384186 0
vt 0.30000001192093 0.60000002384186 0
vt 0.40000000596046 0.60000002384186 0
vt 0.5 0.60000002384186 0
vt 0.60000002384186 0.60000002384186 0
vt 0.69999998807907 0.60000002384186 0
vt 0.80000001192093 0.60000002384186 0
vt 0.89999997615814 0.60000002384186 0
vt 1 0.60000002384186 0
vt 0 0.69999998807907 0
vt 0.10000000149012 0.69999998807907 0
vt 0.20000000298023 0.69999998807907 0
vt 0.30000001192093 0.69999998807907 0
vt 0.40000000596046 0.69999998807907 0
vt 0.5 0.69999998807907 0
vt 0.60000002384186 0.69999998807907 0
vt 0.69999998807907 0.69999998807907 0
vt 0.80000001192093 0.69999998807907 0
vt 0.89999997615814 0.69999998807907 0
vt 1 0.69999998807907 0
vt 0 0.80000001192093 0
vt 0.10000000149012 0.80000001192093 0
vt 0.20000000298023 0.80000001192093 0
vt 0.30000001192093 0.80000001192093 0
vt 0.40000000596046 0.80000001192093 0
vt 0.5 0.80000001192093 0
vt 0.60000002384186 0.80000001192093 0
vt 0.69999998807907 0.80000001192093 0
vt 0.80000001192093 0.80000001192093 0
vt 0.89999997615814 0.80000001192093 0
vt 1 0.80000001192093 0
vt 0 0.89999997615814 0
vt 0.10000000149012 0.89999997615814 0
vt 0.20000000298023 0.89999997615814 0
vt 0.30000001192093 0.89999997615814 0
vt 0.40000000596046 0.89999997615814 0
vt 0.5 0.89999997615814 0
vt 0.60000002384186 0.89999997615814 0
vt 0.69999998807907 0.89999997615814 0
vt 0.80000001192093 0.89999997615814 0
vt 0.89999997615814 0.89999997615814 0
vt 1 0.89999997615814 0
# 121 texture coordinates

o Cube.2
usemtl Cube
f 3/4/1 4/3/1 2/2/1 1/1/1
f 5/6/1 6/5/1 4/3/1 3/4/1
f 7/8/1 8/7/1 6/5/1 5/6/1
f 9/10/1 10/9/1 8/7/1 7/8/1
f 11/12/1 12/11/1 10/9/1 9/10/1
f 13/14/1 14/13/1 12/11/1 11/12/1
f 15/16/1 16/15/1 14/13/1 13/14/1
f 17/18/1 18/17/1 16/15/1 15/16/1
f 19/20/1 20/19/1 18/17/1 17/18/1
f 21/22/1 22/21/1 20/19/1 19/20/1
f 23/4/2 24/3/2 22/2/2 21/1/2
f 25/6/2 26/5/2 24/3/2 23/4/2
f 27/8/2 28/7/2 26/5/2 25/6/2
f 29/10/2 30/9/2 28/7/2 27/8/2
f 31/12/2 32/11/2 30/9/2 29/10/2
f 33/14/2 34/13/2 32/11/2 31/12/2
f 35/16/2 36/15/2 34/13/2 33/14/2
f 37/18/2 38/17/2 36/15/2 35/16/2
f 39/20/2 40/19/2 38/17/2 37/18/2
f 41/22/2 42/21/2 40/19/2 39/20/2
f 43/4/3 44/3/3 42/2/3 41/1/3
f 45/6/3 46/5/3 44/3/3 43/4/3
f 47/8/3 48/7/3 46/5/3 45/6/3
f 49/10/3 50/9/3 48/7/3 47/8/3
f 51/12/3 52/11/3 50/9/3 49/10/3
f 53/14/3 54/13/3 52/11/3 51/12/3
f 55/16/3 56/15/3 54/13/3 53/14/3
f 57/18/3 58/17/3 56/15/3 55/16/3
f 59/20/3 60/19/3 58/17/3 57/18/3
f 61/22/3 62/21/3 60/19/3 59/20/3
f 63/4/4 64/3/4 62/2/4 61/1/4
f 65/6/4 66/5/4 64/3/4 63/4/4
f 67/8/4 68/7/4 66/5/4 65/6/4
f 69/10/4 70/9/4 68/7/4 67/8/4
f 71/12/4 72/11/4 70/9/4 69/10/4
f 73/14/4 74/13/4 72/11/4 71/12/4
f 75/16/4 76/15/4 74/13/4 73/14/4
f 77/18/4 78/17/4 76/15/4 75/16/4
f 79/20/4 80/19/4 78/17/4 77/18/4
f 1/22/4 2/21/4 80/19/4 79/20/4
f 4/4/5 81/24/5 80/23/5 2/1/5
f 6/6/5 90/25/5 81/24/5 4/4/5
f 8/8/5 99/26/5 90/25/5 6/6/5
f 10/10/5 108/27/5 99/26/5 8/8/5
f 12/12/5 117/28/5 108/27/5 10/10/5
f 14/14/5 126/29/5 117/28/5 12/12/5
f 16/16/5 135/30/5 126/29/5 14/14/5
f 18/18/5 144/31/5 135/30/5 16/16/5
f 20/20/5 153/32/5 144/31/5 18/18/5
f 22/22/5 24/33/5 153/32/5 20/20/5
f 81/24/5 82/35/5 78/34/5 80/23/5
f 90/25/5 91/36/5 82/35/5 81/24/5
f 99/26/5 100/37/5 91/36/5 90/25/5
f 108/27/5 109/38/5 100/37/5 99/26/5
f 117/28/5 118/39/5 109/38/5 108/27/5
f 126/29/5 127/40/5 118/39/5 117/28/5
f 135/30/5 136/41/5 127/40/5 126/29/5
f 144/31/5 145/42/5 136/41/5 135/30/5
f 153/32/5 154/43/5 145/42/5 144/31/5
f 24/33/5 26/44/5 154/43/5 153/32/5
f 82/35/5 83/46/5 76/45/5 78/34/5
f 91/36/5 92/47/5 83/46/5 82/35/5
f 100/37/5 101/48/5 92/47/5 91/36/5
f 109/38/5 110/49/5 101/48/5 100/37/5
f 118/39/5 119/50/5 110/49/5 109/38/5
f 127/40/5 128/51/5 119/50/5 118/39/5
f 136/41/5 137/52/5 128/51/5 127/40/5
f 145/42/5 146/53/5 137/52/5 136/41/5
f 154/43/5 155/54/5 146/53/5 145/42/5
f 26/44/5 28/55/5 155/54/5 154/43/5
f 83/46/5 84/57/5 74/56/5 76/45/5
f 92/47/5 93/58/5 84/57/5 83/46/5
f 101/48/5 102/59/5 93/58/5 92/47/5
f 110/49/5 111/60/5 102/59/5 101/48/5
f 119/50/5 120/61/5 111/60/5 110/49/5
f 128/51/5 129/62/5 120/61/5 119/50/5
f 137/52/5 138/63/5 129/62/5 128/51/5
f 146/53/5 147/64/5 138/63/5 137/52/5
f 155/54/5 156/65/5 147/64/5 146/53/5
f 28/55/5 30/66/5 156/65/5 155/54/5
f 84/57/5 85/68/5 72/67/5 74/56/5
f 93/58/5 94/69/5 85/68/5 84/57/5
f 102/59/5 103/70/5 94/69/5 93/58/5
f 111/60/5 112/71/5 103/70/5 102/59/5
f 120/61/5 121/72/5 112/71/5 111/60/5
f 129/62/5 130/73/5 121/72/5 120/61/5
f 138/63/5 139/74/5 130/73/5 129/62/5
f 147/64/5 148/75/5 139/74/5 138/63/5
f 156/65/5 157/76/5 148/75/5 147/64/5
f 30/66/5 32/77/5 157/76/5 156/65/5
f 85/68/5 86/79/5 70/78/5 72/67/5
f 94/69/5 95/80/5 86/79/5 85/68/5
f 103/70/5 104/81/5 95/80/5 94/69/5
f 112/71/5 113/82/5 104/81/5 103/70/5
f 121/72/5 122/83/5 113/82/5 112/71/5
f 130/73/5 131/84/5 122/83/5 121/72/5
f 139/74/5 140/85/5 131/84/5 130/73/5
f 148/75/5 149/86/5 140/85/5 139/74/5
f 157/76/5 158/87/5 149/86/5 148/75/5
f 32/77/5 34/88/5 158/87/5 157/76/5
f 86/79/5 87/90/5 68/89/5 70/78/5
f 95/80/5 96/91/5 87/90/5 86/79/5
f 104/81/5 105/92/5 96/91/5 95/80/5
f 113/82/5 114/93/5 105/92/5 104/81/5
f 122/83/5 123/94/5 114/93/5 113/82/5
f 131/84/5 132/95/5 123/94/5 122/83/5
f 140/85/5 141/96/5 132/95/5 131/84/5
f 149/86/5 150/97/5 141/96/5 140/85/5
f 158/87/5 159/98/5 150/97/5 149/86/5
f 34/88/5 36/99/5 159/98/5 158/87/5
f 87/90/5 88/101/5 66/100/5 68/89/5
f 96/91/5 97/102/5 88/101/5 87/90/5
f 105/92/5 106/103/5 97/102/5 96/91/5
f 114/93/5 115/104/5 106/103/5 105/92/5
f 123/94/5 124/105/5 115/104/5 114/93/5
f 132/95/5 133/106/5 124/105/5 123/94/5
f 141/96/5 142/107/5 133/106/5 132/95/5
f 150/97/5 151/108/5 142/107/5 141/96/5
f 159/98/5 160/109/5 151/108/5 150/97/5
f 36/99/5 38/110/5 160/109/5 159/98/5
f 88/101/5 89/112/5 64/111/5 66/100/5
f 97/102/5 98/113/5 89/112/5 88/101/5
f 106/103/5 107/114/5 98/113/5 97/102/5
f 115/104/5 116/115/5 107/114/5 106/103/5
f 124/105/5 125/116/5 116/115/5 115/104/5
f 133/106/5 134/117/5 125/116/5 124/105/5
f 142/107/5 143/118/5 134/117/5 133/106/5
f 151/108/5 152/119/5 143/118/5 142/107/5
f 160/109/5 161/120/5 152/119/5 151/108/5
f 38/110/5 40/121/5 161/120/5 160/109/5
f 89/112/5 60/3/5 62/2/5 64/111/5
f 98/113/5 58/5/5 60/3/5 89/112/5
f 107/114/5 56/7/5 58/5/5 98/113/5
f 116/115/5 54/9/5 56/7/5 107/114/5
f 125/116/5 52/11/5 54/9/5 116/115/5
f 134/117/5 50/13/5 52/11/5 125/116/5
f 143/118/5 48/15/5 50/13/5 134/117/5
f 152/119/5 46/17/5 48/15/5 143/118/5
f 161/120/5 44/19/5 46/17/5 152/119/5
f 40/121/5 42/21/5 44/19/5 161/120/5
f 59/4/6 162/24/6 63/23/6 61/1/6
f 57/6/6 171/25/6 162/24/6 59/4/6
f 55/8/6 180/26/6 171/25/6 57/6/6
f 53/10/6 189/27/6 180/26/6 55/8/6
f 51/12/6 198/28/6 189/27/6 53/10/6
f 49/14/6 207/29/6 198/28/6 51/12/6
f 47/16/6 216/30/6 207/29/6 49/14/6
f 45/18/6 225/31/6 216/30/6 47/16/6
f 43/20/6 234/32/6 225/31/6 45/18/6
f 41/22/6 39/33/6 234/32/6 43/20/6
f 162/24/6 163/35/6 65/34/6 63/23/6
f 171/25/6 172/36/6 163/35/6 162/24/6
f 180/26/6 181/37/6 172/36/6 171/25/6
f 189/27/6 190/38/6 181/37/6 180/26/6
f 198/28/6 199/39/6 190/38/6 189/27/6
f 207/29/6 208/40/6 199/39/6 198/28/6
f 216/30/6 217/41/6 208/40/6 207/29/6
f 225/31/6 226/42/6 217/41/6 216/30/6
f 234/32/6 235/43/6 226/42/6 225/31/6
f 39/33/6 37/44/6 235/43/6 234/32/6
f 163/35/6 164/46/6 67/45/6 65/34/6
f 172/36/6 173/47/6 164/46/6 163/35/6
f 181/37/6 182/48/6 173/47/6 172/36/6
f 190/38/6 191/49/6 182/48/6 181/37/6
f 199/39/6 200/50/6 191/49/6 190/38/6
f 208/40/6 209/51/6 200/50/6 199/39/6
f 217/41/6 218/52/6 209/51/6 208/40/6
f 226/42/6 227/53/6 218/52/6 217/41/6
f 235/43/6 236/54/6 227/53/6 226/42/6
f 37/44/6 35/55/6 236/54/6 235/43/6
f 164/46/6 165/57/6 69/56/6 67/45/6
f 173/47/6 174/58/6 165/57/6 164/46/6
f 182/48/6 183/59/6 174/58/6 173/47/6
f 191/49/6 192/60/6 183/59/6 182/48/6
f 200/50/6 201/61/6 192/60/6 191/49/6
f 209/51/6 210/62/6 201/61/6 200/50/6
f 218/52/6 219/63/6 210/62/6 209/51/6
f 227/53/6 228/64/6 219/63/6 218/52/6
f 236/54/6 237/65/6 228/64/6 227/53/6
f 35/55/6 33/66/6 237/65/6 236/54/6
f 165/57/6 166/68/6 71/67/6 69/56/6
f 174/58/6 175/69/6 166/68/6 165/57/6
f 183/59/6 184/70/6 175/69/6 174/58/6
f 192/60/6 193/71/6 184/70/6 183/59/6
f 201/61/6 202/72/6 193/71/6 192/60/6
f 210/62/6 211/73/6 202/72/6 201/61/6
f 219/63/6 220/74/6 211/73/6 210/62/6
f 228/64/6 229/75/6 220/74/6 219/63/6
f 237/65/6 238/76/6 229/75/6 228/64/6
f 33/66/6 31/77/6 238/76/6 237/65/6
f 166/68/6 167/79/6 73/78/6 71/67/6
f 175/69/6 176/80/6 167/79/6 166/68/6
f 184/70/6 185/81/6 176/80/6 175/69/6
f 193/71/6 194/82/6 185/81/6 184/70/6
f 202/72/6 203/83/6 194/82/6 193/71/6
f 211/73/6 212/84/6 203/83/6 202/72/6
f 220/74/6 221/85/6 212/84/6 211/73/6
f 229/75/6 230/86/6 221/85/6 220/74/6
f 238/76/6 239/87/6 230/86/6 229/75/6
f 31/77/6 29/88/6 239/87/6 238/76/6
f 167/79/6 168/90/6 75/89/6 73/78/6
f 176/80/6 177/91/6 168/90/6 167/79/6
f 185/81/6 186/92/6 177/91/6 176/80/6
f 194/82/6 195/93/6 186/92/6 185/81/6
f 203/83/6 204/94/6 195/93/6 194/82/6
f 212/84/6 213/95/6 204/94/6 203/83/6
f 221/85/6 222/96/6 213/95/6 212/84/6
f 230/86/6 231/97/6 222/96/6 221/85/6
f 239/87/6 240/98/6 231/97/6 230/86/6
f 29/88/6 27/99/6 240/98/6 239/87/6
f 168/90/6 169/101/6 77/100/6 75/89/6
f 177/91/6 178/102/6 169/101/6 168/90/6
f 186/92/6 187/103/6 178/102/6 177/91/6
f 195/93/6 196/104/6 187/103/6 186/92/6
f 204/94/6 205/105/6 196/104/6 195/93/6
f 213/95/6 214/106/6 205/105/6 204/94/6
f 222/96/6 223/107/6 214/106/6 213/95/6
f 231/97/6 232/108/6 223/107/6 222/96/6
f 240/98/6 241/109/6 232/108/6 231/97/6
f 27/99/6 25/110/6 241/109/6 240/98/6
f 169/101/6 170/112/6 79/111/6 77/100/6
f 178/102/6 179/113/6 170/112/6 169/101/6
f 187/103/6 188/114/6 179/113/6 178/102/6
f 196/104/6 197/115/6 188/114/6 187/103/6
f 205/105/6 206/116/6 197/115/6 196/104/6
f 214/106/6 215/117/6 206/116/6 205/105/6
f 223/107/6 224/118/6 215/117/6 214/106/6
f 232/108/6 233/119/6 224/118/6 223/107/6
f 241/109/6 242/120/6 233/119/6 232/108/6
f 25/110/6 23/121/6 242/120/6 241/109/6
f 170/112/6 3/3/6 1/2/6 79/111/6
f 179/113/6 5/5/6 3/3/6 170/112/6
f 188/114/6 7/7/6 5/5/6 179/113/6
f 197/115/6 9/9/6 7/7/6 188/114/6
f 206/116/6 11/11/6 9/9/6 197/115/6
f 215/117/6 13/13/6 11/11/6 206/116/6
f 224/118/6 15/15/6 13/13/6 215/117/6
f 233/119/6 17/17/6 15/15/6 224/118/6
f 242/120/6 19/19/6 17/17/6 233/119/6
f 23/121/6 21/21/6 19/19/6 242/120/6

